<svg xmlns="http://www.w3.org/2000/svg" width="96" height="128" viewBox="0 0 96 128" shape-rendering="crispEdges"><path fill="#293444" d="M46 8h4v1H46z"/><path fill="#293444" d="M41 9h5v1H41z"/><path fill="#3b424e" d="M46 9h4v1H46z"/><path fill="#293444" d="M50 9h4v1H50z"/><path fill="#293444" d="M38 10h3v1H38z"/><path fill="#3b424e" d="M41 10h13v1H41z"/><path fill="#293444" d="M54 10h4v1H54z"/><path fill="#293444" d="M36 11h2v1H36z"/><path fill="#3b424e" d="M38 11h20v1H38z"/><path fill="#293444" d="M58 11h2v1H58z"/><path fill="#293444" d="M35 12h1v1H35z"/><path fill="#3b424e" d="M36 12h24v1H36z"/><path fill="#293444" d="M60 12h1v1H60z"/><path fill="#293444" d="M34 13h1v1H34z"/><path fill="#3b424e" d="M35 13h7v1H35z"/><path fill="#5f6978" d="M42 13h11v1H42z"/><path fill="#3b424e" d="M53 13h8v1H53z"/><path fill="#293444" d="M61 13h1v1H61z"/><path fill="#293444" d="M32 14h2v1H32z"/><path fill="#3b424e" d="M34 14h5v1H34z"/><path fill="#5f6978" d="M39 14h16v1H39z"/><path fill="#3b424e" d="M55 14h7v1H55z"/><path fill="#293444" d="M62 14h1v1H62z"/><path fill="#293444" d="M31 15h1v1H31z"/><path fill="#3b424e" d="M32 15h5v1H32z"/><path fill="#5f6978" d="M37 15h20v1H37z"/><path fill="#3b424e" d="M57 15h6v1H57z"/><path fill="#293444" d="M63 15h1v1H63z"/><path fill="#293444" d="M31 16h1v1H31z"/><path fill="#3b424e" d="M32 16h2v1H32z"/><path fill="#5f6978" d="M34 16h25v1H34z"/><path fill="#3b424e" d="M59 16h5v1H59z"/><path fill="#293444" d="M64 16h1v1H64z"/><path fill="#293444" d="M30 17h1v1H30z"/><path fill="#3b424e" d="M31 17h3v1H31z"/><path fill="#5f6978" d="M34 17h27v1H34z"/><path fill="#3b424e" d="M61 17h4v1H61z"/><path fill="#293444" d="M65 17h1v1H65z"/><path fill="#293444" d="M30 18h1v1H30z"/><path fill="#3b424e" d="M31 18h2v1H31z"/><path fill="#5f6978" d="M33 18h28v1H33z"/><path fill="#3b424e" d="M61 18h4v1H61z"/><path fill="#293444" d="M65 18h1v1H65z"/><path fill="#293444" d="M30 19h1v1H30z"/><path fill="#3b424e" d="M31 19h2v1H31z"/><path fill="#5f6978" d="M33 19h12v1H33z"/><path fill="#3b424e" d="M45 19h5v1H45z"/><path fill="#5f6978" d="M50 19h12v1H50z"/><path fill="#3b424e" d="M62 19h4v1H62z"/><path fill="#293444" d="M66 19h1v1H66z"/><path fill="#293444" d="M30 20h1v1H30z"/><path fill="#3b424e" d="M31 20h1v1H31z"/><path fill="#5f6978" d="M32 20h9v1H32z"/><path fill="#3b424e" d="M41 20h13v1H41z"/><path fill="#5f6978" d="M54 20h9v1H54z"/><path fill="#3b424e" d="M63 20h3v1H63z"/><path fill="#293444" d="M66 20h1v1H66z"/><path fill="#293444" d="M29 21h1v1H29z"/><path fill="#3b424e" d="M30 21h2v1H30z"/><path fill="#5f6978" d="M32 21h6v1H32z"/><path fill="#3b424e" d="M38 21h19v1H38z"/><path fill="#5f6978" d="M57 21h6v1H57z"/><path fill="#3b424e" d="M63 21h3v1H63z"/><path fill="#293444" d="M66 21h1v1H66z"/><path fill="#293444" d="M29 22h1v1H29z"/><path fill="#3b424e" d="M30 22h1v1H30z"/><path fill="#5f6978" d="M31 22h4v1H31z"/><path fill="#3b424e" d="M35 22h24v1H35z"/><path fill="#5f6978" d="M59 22h4v1H59z"/><path fill="#3b424e" d="M63 22h3v1H63z"/><path fill="#293444" d="M66 22h1v1H66z"/><path fill="#293444" d="M29 23h1v1H29z"/><path fill="#3b424e" d="M30 23h30v1H30z"/><path fill="#5f6978" d="M60 23h4v1H60z"/><path fill="#3b424e" d="M64 23h3v1H64z"/><path fill="#293444" d="M67 23h1v1H67z"/><path fill="#293444" d="M28 24h1v1H28z"/><path fill="#3b424e" d="M29 24h33v1H29z"/><path fill="#5f6978" d="M62 24h3v1H62z"/><path fill="#3b424e" d="M65 24h2v1H65z"/><path fill="#293444" d="M67 24h1v1H67z"/><path fill="#293444" d="M28 25h1v1H28z"/><path fill="#3b424e" d="M29 25h38v1H29z"/><path fill="#293444" d="M67 25h1v1H67z"/><path fill="#293444" d="M28 26h1v1H28z"/><path fill="#3b424e" d="M29 26h38v1H29z"/><path fill="#293444" d="M67 26h1v1H67z"/><path fill="#d77563" d="M14 27h6v1H14z"/><path fill="#293444" d="M28 27h1v1H28z"/><path fill="#3b424e" d="M29 27h39v1H29z"/><path fill="#293444" d="M68 27h1v1H68z"/><path fill="#d77563" d="M14 28h6v1H14z"/><path fill="#293444" d="M27 28h1v1H27z"/><path fill="#3b424e" d="M28 28h40v1H28z"/><path fill="#293444" d="M68 28h1v1H68z"/><path fill="#d77563" d="M14 29h2v1H14z"/><path fill="#293444" d="M27 29h1v1H27z"/><path fill="#3b424e" d="M28 29h40v1H28z"/><path fill="#293444" d="M68 29h1v1H68z"/><path fill="#d77563" d="M14 30h2v1H14z"/><path fill="#293444" d="M27 30h1v1H27z"/><path fill="#3b424e" d="M28 30h40v1H28z"/><path fill="#293444" d="M68 30h1v1H68z"/><path fill="#d77563" d="M14 31h2v1H14z"/><path fill="#293444" d="M27 31h1v1H27z"/><path fill="#3b424e" d="M28 31h39v1H28z"/><path fill="#293444" d="M67 31h1v1H67z"/><path fill="#d77563" d="M14 32h2v1H14z"/><path fill="#293444" d="M26 32h1v1H26z"/><path fill="#f2c397" d="M27 32h1v1H27z"/><path fill="#293444" d="M28 32h1v1H28z"/><path fill="#3b424e" d="M29 32h38v1H29z"/><path fill="#293444" d="M67 32h2v1H67z"/><path fill="#d77563" d="M14 33h2v1H14z"/><path fill="#293444" d="M26 33h1v1H26z"/><path fill="#f2c397" d="M27 33h1v1H27z"/><path fill="#293444" d="M28 33h1v1H28z"/><path fill="#899294" d="M29 33h3v1H29z"/><path fill="#3b424e" d="M32 33h31v1H32z"/><path fill="#899294" d="M63 33h3v1H63z"/><path fill="#3b424e" d="M66 33h1v1H66z"/><path fill="#293444" d="M67 33h2v1H67z"/><path fill="#d77563" d="M14 34h2v1H14z"/><path fill="#293444" d="M25 34h1v1H25z"/><path fill="#f2c397" d="M26 34h2v1H26z"/><path fill="#293444" d="M28 34h1v1H28z"/><path fill="#899294" d="M29 34h3v1H29z"/><path fill="#3b424e" d="M32 34h31v1H32z"/><path fill="#899294" d="M63 34h3v1H63z"/><path fill="#3b424e" d="M66 34h1v1H66z"/><path fill="#293444" d="M67 34h1v1H67z"/><path fill="#f2c397" d="M68 34h1v1H68z"/><path fill="#293444" d="M69 34h1v1H69z"/><path fill="#d77563" d="M11 35h5v1H11z"/><path fill="#293444" d="M25 35h1v1H25z"/><path fill="#f2c397" d="M26 35h2v1H26z"/><path fill="#293444" d="M28 35h1v1H28z"/><path fill="#899294" d="M29 35h3v1H29z"/><path fill="#3b424e" d="M32 35h31v1H32z"/><path fill="#899294" d="M63 35h3v1H63z"/><path fill="#293444" d="M66 35h1v1H66z"/><path fill="#f2c397" d="M67 35h2v1H67z"/><path fill="#293444" d="M69 35h1v1H69z"/><path fill="#293444" d="M75 35h6v1H75z"/><path fill="#d77563" d="M10 36h6v1H10z"/><path fill="#293444" d="M25 36h1v1H25z"/><path fill="#f2c397" d="M26 36h3v1H26z"/><path fill="#899294" d="M29 36h3v1H29z"/><path fill="#3b424e" d="M32 36h31v1H32z"/><path fill="#899294" d="M63 36h3v1H63z"/><path fill="#293444" d="M66 36h1v1H66z"/><path fill="#f2c397" d="M67 36h2v1H67z"/><path fill="#293444" d="M69 36h1v1H69z"/><path fill="#f2c397" d="M74 36h1v1H74z"/><path fill="#293444" d="M75 36h1v1H75z"/><path fill="#f2c397" d="M76 36h5v1H76z"/><path fill="#293444" d="M81 36h1v1H81z"/><path fill="#d77563" d="M10 37h6v1H10z"/><path fill="#293444" d="M25 37h1v1H25z"/><path fill="#f2c397" d="M26 37h3v1H26z"/><path fill="#899294" d="M29 37h3v1H29z"/><path fill="#3b424e" d="M32 37h31v1H32z"/><path fill="#899294" d="M63 37h3v1H63z"/><path fill="#293444" d="M66 37h1v1H66z"/><path fill="#f2c397" d="M67 37h2v1H67z"/><path fill="#293444" d="M69 37h1v1H69z"/><path fill="#293444" d="M74 37h1v1H74z"/><path fill="#ffe0b0" d="M75 37h4v1H75z"/><path fill="#f2c397" d="M79 37h2v1H79z"/><path fill="#293444" d="M81 37h1v1H81z"/><path fill="#d77563" d="M11 38h4v1H11z"/><path fill="#293444" d="M25 38h1v1H25z"/><path fill="#f2c397" d="M26 38h3v1H26z"/><path fill="#899294" d="M29 38h3v1H29z"/><path fill="#3b424e" d="M32 38h31v1H32z"/><path fill="#899294" d="M63 38h3v1H63z"/><path fill="#f2c397" d="M66 38h3v1H66z"/><path fill="#293444" d="M69 38h1v1H69z"/><path fill="#293444" d="M74 38h1v1H74z"/><path fill="#d89778" d="M75 38h5v1H75z"/><path fill="#f2c397" d="M80 38h2v1H80z"/><path fill="#293444" d="M82 38h1v1H82z"/><path fill="#293444" d="M26 39h1v1H26z"/><path fill="#f2c397" d="M27 39h2v1H27z"/><path fill="#899294" d="M29 39h3v1H29z"/><path fill="#3b424e" d="M32 39h31v1H32z"/><path fill="#899294" d="M63 39h3v1H63z"/><path fill="#f2c397" d="M66 39h2v1H66z"/><path fill="#293444" d="M68 39h1v1H68z"/><path fill="#293444" d="M73 39h1v1H73z"/><path fill="#f2c397" d="M74 39h1v1H74z"/><path fill="#ffe0b0" d="M75 39h4v1H75z"/><path fill="#f2c397" d="M79 39h3v1H79z"/><path fill="#293444" d="M82 39h1v1H82z"/><path fill="#293444" d="M26 40h1v1H26z"/><path fill="#f2c397" d="M27 40h2v1H27z"/><path fill="#899294" d="M29 40h3v1H29z"/><path fill="#3b424e" d="M32 40h31v1H32z"/><path fill="#899294" d="M63 40h3v1H63z"/><path fill="#f2c397" d="M66 40h2v1H66z"/><path fill="#293444" d="M68 40h1v1H68z"/><path fill="#293444" d="M73 40h1v1H73z"/><path fill="#f2c397" d="M74 40h8v1H74z"/><path fill="#293444" d="M82 40h1v1H82z"/><path fill="#293444" d="M27 41h1v1H27z"/><path fill="#f2c397" d="M28 41h1v1H28z"/><path fill="#899294" d="M29 41h3v1H29z"/><path fill="#3b424e" d="M32 41h31v1H32z"/><path fill="#899294" d="M63 41h3v1H63z"/><path fill="#f2c397" d="M66 41h1v1H66z"/><path fill="#293444" d="M67 41h1v1H67z"/><path fill="#293444" d="M73 41h1v1H73z"/><path fill="#f2c397" d="M74 41h8v1H74z"/><path fill="#293444" d="M82 41h1v1H82z"/><path fill="#293444" d="M28 42h3v1H28z"/><path fill="#3b424e" d="M31 42h33v1H31z"/><path fill="#293444" d="M64 42h3v1H64z"/><path fill="#293444" d="M74 42h1v1H74z"/><path fill="#f2c397" d="M75 42h1v1H75z"/><path fill="#d89778" d="M76 42h5v1H76z"/><path fill="#f2c397" d="M81 42h1v1H81z"/><path fill="#293444" d="M82 42h1v1H82z"/><path fill="#293444" d="M31 43h1v1H31z"/><path fill="#3b424e" d="M32 43h7v1H32z"/><path fill="#5f6978" d="M39 43h2v1H39z"/><path fill="#3b424e" d="M41 43h14v1H41z"/><path fill="#5f6978" d="M55 43h2v1H55z"/><path fill="#3b424e" d="M57 43h7v1H57z"/><path fill="#293444" d="M64 43h1v1H64z"/><path fill="#293444" d="M74 43h1v1H74z"/><path fill="#f2c397" d="M75 43h6v1H75z"/><path fill="#293444" d="M81 43h1v1H81z"/><path fill="#293444" d="M32 44h1v1H32z"/><path fill="#3b424e" d="M33 44h8v1H33z"/><path fill="#5f6978" d="M41 44h2v1H41z"/><path fill="#3b424e" d="M43 44h8v1H43z"/><path fill="#5f6978" d="M51 44h4v1H51z"/><path fill="#3b424e" d="M55 44h8v1H55z"/><path fill="#293444" d="M63 44h1v1H63z"/><path fill="#293444" d="M73 44h4v1H73z"/><path fill="#f2c397" d="M77 44h3v1H77z"/><path fill="#293444" d="M80 44h2v1H80z"/><path fill="#293444" d="M33 45h2v1H33z"/><path fill="#3b424e" d="M35 45h8v1H35z"/><path fill="#5f6978" d="M43 45h2v1H43z"/><path fill="#3b424e" d="M45 45h3v1H45z"/><path fill="#5f6978" d="M48 45h3v1H48z"/><path fill="#3b424e" d="M51 45h11v1H51z"/><path fill="#293444" d="M62 45h1v1H62z"/><path fill="#293444" d="M73 45h1v1H73z"/><path fill="#e5e9df" d="M74 45h3v1H74z"/><path fill="#293444" d="M77 45h3v1H77z"/><path fill="#e5e9df" d="M80 45h1v1H80z"/><path fill="#293444" d="M81 45h1v1H81z"/><path fill="#293444" d="M35 46h1v1H35z"/><path fill="#3b424e" d="M36 46h9v1H36z"/><path fill="#5f6978" d="M45 46h3v1H45z"/><path fill="#3b424e" d="M48 46h13v1H48z"/><path fill="#293444" d="M61 46h1v1H61z"/><path fill="#293444" d="M73 46h1v1H73z"/><path fill="#e5e9df" d="M74 46h7v1H74z"/><path fill="#293444" d="M81 46h1v1H81z"/><path fill="#293444" d="M36 47h1v1H36z"/><path fill="#3b424e" d="M37 47h23v1H37z"/><path fill="#293444" d="M60 47h1v1H60z"/><path fill="#293444" d="M72 47h1v1H72z"/><path fill="#e5e9df" d="M73 47h8v1H73z"/><path fill="#293444" d="M81 47h1v1H81z"/><path fill="#293444" d="M37 48h1v1H37z"/><path fill="#3b424e" d="M38 48h21v1H38z"/><path fill="#293444" d="M59 48h1v1H59z"/><path fill="#293444" d="M72 48h1v1H72z"/><path fill="#e5e9df" d="M73 48h8v1H73z"/><path fill="#293444" d="M81 48h1v1H81z"/><path fill="#293444" d="M38 49h10v1H38z"/><path fill="#3b424e" d="M48 49h10v1H48z"/><path fill="#293444" d="M58 49h1v1H58z"/><path fill="#293444" d="M72 49h1v1H72z"/><path fill="#e5e9df" d="M73 49h8v1H73z"/><path fill="#293444" d="M81 49h1v1H81z"/><path fill="#f2c397" d="M41 50h7v1H41z"/><path fill="#293444" d="M48 50h10v1H48z"/><path fill="#293444" d="M72 50h1v1H72z"/><path fill="#e5e9df" d="M73 50h8v1H73z"/><path fill="#293444" d="M81 50h1v1H81z"/><path fill="#293444" d="M40 51h1v1H40z"/><path fill="#f2c397" d="M41 51h15v1H41z"/><path fill="#293444" d="M56 51h1v1H56z"/><path fill="#293444" d="M72 51h1v1H72z"/><path fill="#e5e9df" d="M73 51h8v1H73z"/><path fill="#293444" d="M81 51h1v1H81z"/><path fill="#293444" d="M38 52h2v1H38z"/><path fill="#e5e9df" d="M40 52h1v1H40z"/><path fill="#f2c397" d="M41 52h15v1H41z"/><path fill="#e5e9df" d="M56 52h1v1H56z"/><path fill="#293444" d="M57 52h3v1H57z"/><path fill="#293444" d="M72 52h1v1H72z"/><path fill="#e5e9df" d="M73 52h8v1H73z"/><path fill="#293444" d="M81 52h1v1H81z"/><path fill="#293444" d="M35 53h3v1H35z"/><path fill="#e5e9df" d="M38 53h3v1H38z"/><path fill="#f2c397" d="M41 53h15v1H41z"/><path fill="#e5e9df" d="M56 53h4v1H56z"/><path fill="#293444" d="M60 53h2v1H60z"/><path fill="#293444" d="M71 53h1v1H71z"/><path fill="#e5e9df" d="M72 53h10v1H72z"/><path fill="#293444" d="M82 53h1v1H82z"/><path fill="#293444" d="M33 54h2v1H33z"/><path fill="#e5e9df" d="M35 54h6v1H35z"/><path fill="#f2c397" d="M41 54h15v1H41z"/><path fill="#e5e9df" d="M56 54h6v1H56z"/><path fill="#293444" d="M62 54h3v1H62z"/><path fill="#293444" d="M71 54h1v1H71z"/><path fill="#e5e9df" d="M72 54h10v1H72z"/><path fill="#293444" d="M82 54h1v1H82z"/><path fill="#293444" d="M31 55h2v1H31z"/><path fill="#e5e9df" d="M33 55h7v1H33z"/><path fill="#fff9ed" d="M40 55h16v1H40z"/><path fill="#e5e9df" d="M56 55h9v1H56z"/><path fill="#293444" d="M65 55h2v1H65z"/><path fill="#293444" d="M71 55h1v1H71z"/><path fill="#e5e9df" d="M72 55h10v1H72z"/><path fill="#293444" d="M82 55h1v1H82z"/><path fill="#293444" d="M30 56h1v1H30z"/><path fill="#e5e9df" d="M31 56h6v1H31z"/><path fill="#fff9ed" d="M37 56h21v1H37z"/><path fill="#e5e9df" d="M58 56h9v1H58z"/><path fill="#293444" d="M67 56h1v1H67z"/><path fill="#293444" d="M69 56h2v1H69z"/><path fill="#e5e9df" d="M71 56h11v1H71z"/><path fill="#293444" d="M82 56h1v1H82z"/><path fill="#293444" d="M29 57h1v1H29z"/><path fill="#e5e9df" d="M30 57h4v1H30z"/><path fill="#fff9ed" d="M34 57h25v1H34z"/><path fill="#e5e9df" d="M59 57h9v1H59z"/><path fill="#293444" d="M68 57h1v1H68z"/><path fill="#e5e9df" d="M69 57h13v1H69z"/><path fill="#293444" d="M82 57h1v1H82z"/><path fill="#293444" d="M28 58h1v1H28z"/><path fill="#e5e9df" d="M29 58h5v1H29z"/><path fill="#fff9ed" d="M34 58h27v1H34z"/><path fill="#e5e9df" d="M61 58h5v1H61z"/><path fill="#293444" d="M66 58h2v1H66z"/><path fill="#e5e9df" d="M68 58h14v1H68z"/><path fill="#293444" d="M82 58h1v1H82z"/><path fill="#293444" d="M26 59h2v1H26z"/><path fill="#e5e9df" d="M28 59h6v1H28z"/><path fill="#fff9ed" d="M34 59h28v1H34z"/><path fill="#e5e9df" d="M62 59h3v1H62z"/><path fill="#293444" d="M65 59h1v1H65z"/><path fill="#e5e9df" d="M66 59h16v1H66z"/><path fill="#293444" d="M82 59h1v1H82z"/><path fill="#293444" d="M25 60h3v1H25z"/><path fill="#e5e9df" d="M28 60h6v1H28z"/><path fill="#fff9ed" d="M34 60h30v1H34z"/><path fill="#e5e9df" d="M64 60h1v1H64z"/><path fill="#293444" d="M65 60h1v1H65z"/><path fill="#e5e9df" d="M66 60h16v1H66z"/><path fill="#293444" d="M82 60h1v1H82z"/><path fill="#293444" d="M23 61h2v1H23z"/><path fill="#e5e9df" d="M25 61h2v1H25z"/><path fill="#293444" d="M27 61h1v1H27z"/><path fill="#e5e9df" d="M28 61h6v1H28z"/><path fill="#fff9ed" d="M34 61h30v1H34z"/><path fill="#e5e9df" d="M64 61h1v1H64z"/><path fill="#293444" d="M65 61h1v1H65z"/><path fill="#e5e9df" d="M66 61h16v1H66z"/><path fill="#293444" d="M82 61h1v1H82z"/><path fill="#293444" d="M22 62h1v1H22z"/><path fill="#e5e9df" d="M23 62h4v1H23z"/><path fill="#293444" d="M27 62h1v1H27z"/><path fill="#e5e9df" d="M28 62h6v1H28z"/><path fill="#fff9ed" d="M34 62h30v1H34z"/><path fill="#e5e9df" d="M64 62h1v1H64z"/><path fill="#293444" d="M65 62h1v1H65z"/><path fill="#e5e9df" d="M66 62h15v1H66z"/><path fill="#293444" d="M81 62h1v1H81z"/><path fill="#e5e9df" d="M82 62h1v1H82z"/><path fill="#293444" d="M21 63h1v1H21z"/><path fill="#e5e9df" d="M22 63h6v1H22z"/><path fill="#293444" d="M28 63h1v1H28z"/><path fill="#e5e9df" d="M29 63h5v1H29z"/><path fill="#fff9ed" d="M34 63h30v1H34z"/><path fill="#e5e9df" d="M64 63h2v1H64z"/><path fill="#293444" d="M66 63h1v1H66z"/><path fill="#e5e9df" d="M67 63h14v1H67z"/><path fill="#293444" d="M81 63h1v1H81z"/><path fill="#293444" d="M21 64h1v1H21z"/><path fill="#e5e9df" d="M22 64h6v1H22z"/><path fill="#293444" d="M28 64h1v1H28z"/><path fill="#e5e9df" d="M29 64h5v1H29z"/><path fill="#fff9ed" d="M34 64h30v1H34z"/><path fill="#e5e9df" d="M64 64h2v1H64z"/><path fill="#293444" d="M66 64h1v1H66z"/><path fill="#e5e9df" d="M67 64h13v1H67z"/><path fill="#293444" d="M80 64h1v1H80z"/><path fill="#293444" d="M20 65h1v1H20z"/><path fill="#e5e9df" d="M21 65h8v1H21z"/><path fill="#293444" d="M29 65h1v1H29z"/><path fill="#e5e9df" d="M30 65h4v1H30z"/><path fill="#fff9ed" d="M34 65h30v1H34z"/><path fill="#e5e9df" d="M64 65h2v1H64z"/><path fill="#293444" d="M66 65h1v1H66z"/><path fill="#e5e9df" d="M67 65h13v1H67z"/><path fill="#293444" d="M80 65h1v1H80z"/><path fill="#293444" d="M20 66h1v1H20z"/><path fill="#e5e9df" d="M21 66h8v1H21z"/><path fill="#293444" d="M29 66h1v1H29z"/><path fill="#e5e9df" d="M30 66h4v1H30z"/><path fill="#fff9ed" d="M34 66h30v1H34z"/><path fill="#e5e9df" d="M64 66h2v1H64z"/><path fill="#293444" d="M66 66h1v1H66z"/><path fill="#e5e9df" d="M67 66h12v1H67z"/><path fill="#293444" d="M79 66h1v1H79z"/><path fill="#e5e9df" d="M80 66h1v1H80z"/><path fill="#293444" d="M20 67h1v1H20z"/><path fill="#e5e9df" d="M21 67h9v1H21z"/><path fill="#293444" d="M30 67h1v1H30z"/><path fill="#e5e9df" d="M31 67h3v1H31z"/><path fill="#fff9ed" d="M34 67h30v1H34z"/><path fill="#e5e9df" d="M64 67h2v1H64z"/><path fill="#293444" d="M66 67h1v1H66z"/><path fill="#e5e9df" d="M67 67h12v1H67z"/><path fill="#293444" d="M79 67h1v1H79z"/><path fill="#293444" d="M19 68h1v1H19z"/><path fill="#e5e9df" d="M20 68h10v1H20z"/><path fill="#293444" d="M30 68h1v1H30z"/><path fill="#b4c4c5" d="M31 68h1v1H31z"/><path fill="#e5e9df" d="M32 68h2v1H32z"/><path fill="#fff9ed" d="M34 68h30v1H34z"/><path fill="#e5e9df" d="M64 68h2v1H64z"/><path fill="#293444" d="M66 68h1v1H66z"/><path fill="#e5e9df" d="M67 68h11v1H67z"/><path fill="#293444" d="M78 68h1v1H78z"/><path fill="#293444" d="M19 69h1v1H19z"/><path fill="#e5e9df" d="M20 69h11v1H20z"/><path fill="#293444" d="M31 69h1v1H31z"/><path fill="#e5e9df" d="M32 69h3v1H32z"/><path fill="#fff9ed" d="M35 69h29v1H35z"/><path fill="#e5e9df" d="M64 69h2v1H64z"/><path fill="#293444" d="M66 69h1v1H66z"/><path fill="#e5e9df" d="M67 69h11v1H67z"/><path fill="#293444" d="M78 69h1v1H78z"/><path fill="#293444" d="M18 70h1v1H18z"/><path fill="#e5e9df" d="M19 70h12v1H19z"/><path fill="#293444" d="M31 70h1v1H31z"/><path fill="#e5e9df" d="M32 70h3v1H32z"/><path fill="#fff9ed" d="M35 70h29v1H35z"/><path fill="#e5e9df" d="M64 70h2v1H64z"/><path fill="#293444" d="M66 70h1v1H66z"/><path fill="#e5e9df" d="M67 70h10v1H67z"/><path fill="#293444" d="M77 70h1v1H77z"/><path fill="#e5e9df" d="M78 70h1v1H78z"/><path fill="#293444" d="M18 71h1v1H18z"/><path fill="#e5e9df" d="M19 71h12v1H19z"/><path fill="#293444" d="M31 71h1v1H31z"/><path fill="#e5e9df" d="M32 71h3v1H32z"/><path fill="#fff9ed" d="M35 71h29v1H35z"/><path fill="#e5e9df" d="M64 71h3v1H64z"/><path fill="#293444" d="M67 71h1v1H67z"/><path fill="#e5e9df" d="M68 71h9v1H68z"/><path fill="#293444" d="M77 71h1v1H77z"/><path fill="#293444" d="M18 72h1v1H18z"/><path fill="#e5e9df" d="M19 72h11v1H19z"/><path fill="#293444" d="M30 72h1v1H30z"/><path fill="#b4c4c5" d="M31 72h2v1H31z"/><path fill="#e5e9df" d="M33 72h2v1H33z"/><path fill="#fff9ed" d="M35 72h29v1H35z"/><path fill="#e5e9df" d="M64 72h3v1H64z"/><path fill="#293444" d="M67 72h1v1H67z"/><path fill="#e5e9df" d="M68 72h8v1H68z"/><path fill="#293444" d="M76 72h1v1H76z"/><path fill="#293444" d="M17 73h1v1H17z"/><path fill="#e5e9df" d="M18 73h12v1H18z"/><path fill="#293444" d="M30 73h1v1H30z"/><path fill="#b4c4c5" d="M31 73h2v1H31z"/><path fill="#e5e9df" d="M33 73h2v1H33z"/><path fill="#fff9ed" d="M35 73h29v1H35z"/><path fill="#e5e9df" d="M64 73h3v1H64z"/><path fill="#293444" d="M67 73h1v1H67z"/><path fill="#e5e9df" d="M68 73h4v1H68z"/><path fill="#293444" d="M72 73h5v1H72z"/><path fill="#293444" d="M14 74h6v1H14z"/><path fill="#e5e9df" d="M20 74h10v1H20z"/><path fill="#293444" d="M30 74h1v1H30z"/><path fill="#b4c4c5" d="M31 74h2v1H31z"/><path fill="#e5e9df" d="M33 74h2v1H33z"/><path fill="#fff9ed" d="M35 74h29v1H35z"/><path fill="#e5e9df" d="M64 74h3v1H64z"/><path fill="#293444" d="M67 74h5v1H67z"/><path fill="#293444" d="M14 75h1v1H14z"/><path fill="#f2c397" d="M15 75h5v1H15z"/><path fill="#293444" d="M20 75h1v1H20z"/><path fill="#e5e9df" d="M21 75h9v1H21z"/><path fill="#293444" d="M30 75h1v1H30z"/><path fill="#b4c4c5" d="M31 75h2v1H31z"/><path fill="#e5e9df" d="M33 75h2v1H33z"/><path fill="#fff9ed" d="M35 75h29v1H35z"/><path fill="#e5e9df" d="M64 75h7v1H64z"/><path fill="#293444" d="M71 75h1v1H71z"/><path fill="#293444" d="M13 76h1v1H13z"/><path fill="#ffe0b0" d="M14 76h4v1H14z"/><path fill="#f2c397" d="M18 76h2v1H18z"/><path fill="#293444" d="M20 76h1v1H20z"/><path fill="#e5e9df" d="M21 76h8v1H21z"/><path fill="#293444" d="M29 76h1v1H29z"/><path fill="#b4c4c5" d="M30 76h3v1H30z"/><path fill="#e5e9df" d="M33 76h2v1H33z"/><path fill="#fff9ed" d="M35 76h29v1H35z"/><path fill="#e5e9df" d="M64 76h4v1H64z"/><path fill="#b4c4c5" d="M68 76h1v1H68z"/><path fill="#e5e9df" d="M69 76h1v1H69z"/><path fill="#293444" d="M70 76h1v1H70z"/><path fill="#f2c397" d="M12 77h1v1H12z"/><path fill="#293444" d="M13 77h1v1H13z"/><path fill="#ffe0b0" d="M14 77h4v1H14z"/><path fill="#f2c397" d="M18 77h3v1H18z"/><path fill="#293444" d="M21 77h1v1H21z"/><path fill="#e5e9df" d="M22 77h7v1H22z"/><path fill="#293444" d="M29 77h1v1H29z"/><path fill="#b4c4c5" d="M30 77h3v1H30z"/><path fill="#e5e9df" d="M33 77h2v1H33z"/><path fill="#fff9ed" d="M35 77h29v1H35z"/><path fill="#e5e9df" d="M64 77h3v1H64z"/><path fill="#b4c4c5" d="M67 77h2v1H67z"/><path fill="#e5e9df" d="M69 77h1v1H69z"/><path fill="#293444" d="M70 77h1v1H70z"/><path fill="#293444" d="M12 78h1v1H12z"/><path fill="#f2c397" d="M13 78h1v1H13z"/><path fill="#ffe0b0" d="M14 78h4v1H14z"/><path fill="#f2c397" d="M18 78h3v1H18z"/><path fill="#293444" d="M21 78h1v1H21z"/><path fill="#e5e9df" d="M22 78h7v1H22z"/><path fill="#293444" d="M29 78h1v1H29z"/><path fill="#b4c4c5" d="M30 78h3v1H30z"/><path fill="#e5e9df" d="M33 78h2v1H33z"/><path fill="#293444" d="M35 78h26v1H35z"/><path fill="#fff9ed" d="M61 78h3v1H61z"/><path fill="#e5e9df" d="M64 78h3v1H64z"/><path fill="#b4c4c5" d="M67 78h2v1H67z"/><path fill="#e5e9df" d="M69 78h1v1H69z"/><path fill="#293444" d="M70 78h1v1H70z"/><path fill="#293444" d="M12 79h1v1H12z"/><path fill="#f2c397" d="M13 79h8v1H13z"/><path fill="#293444" d="M21 79h1v1H21z"/><path fill="#e5e9df" d="M22 79h7v1H22z"/><path fill="#293444" d="M29 79h1v1H29z"/><path fill="#b4c4c5" d="M30 79h3v1H30z"/><path fill="#e5e9df" d="M33 79h1v1H33z"/><path fill="#293444" d="M34 79h1v1H34z"/><path fill="#50799b" d="M35 79h26v1H35z"/><path fill="#293444" d="M61 79h2v1H61z"/><path fill="#e5e9df" d="M63 79h3v1H63z"/><path fill="#b4c4c5" d="M66 79h3v1H66z"/><path fill="#e5e9df" d="M69 79h1v1H69z"/><path fill="#293444" d="M70 79h1v1H70z"/><path fill="#293444" d="M12 80h1v1H12z"/><path fill="#f2c397" d="M13 80h8v1H13z"/><path fill="#293444" d="M21 80h1v1H21z"/><path fill="#e5e9df" d="M22 80h6v1H22z"/><path fill="#293444" d="M28 80h1v1H28z"/><path fill="#b4c4c5" d="M29 80h3v1H29z"/><path fill="#293444" d="M32 80h2v1H32z"/><path fill="#50799b" d="M34 80h29v1H34z"/><path fill="#293444" d="M63 80h1v1H63z"/><path fill="#e5e9df" d="M64 80h2v1H64z"/><path fill="#b4c4c5" d="M66 80h3v1H66z"/><path fill="#e5e9df" d="M69 80h1v1H69z"/><path fill="#293444" d="M70 80h1v1H70z"/><path fill="#293444" d="M13 81h1v1H13z"/><path fill="#f2c397" d="M14 81h1v1H14z"/><path fill="#d89778" d="M15 81h5v1H15z"/><path fill="#f2c397" d="M20 81h1v1H20z"/><path fill="#293444" d="M21 81h1v1H21z"/><path fill="#e5e9df" d="M22 81h6v1H22z"/><path fill="#293444" d="M28 81h1v1H28z"/><path fill="#b4c4c5" d="M29 81h2v1H29z"/><path fill="#293444" d="M31 81h1v1H31z"/><path fill="#50799b" d="M32 81h4v1H32z"/><path fill="#81acbe" d="M36 81h24v1H36z"/><path fill="#50799b" d="M60 81h4v1H60z"/><path fill="#293444" d="M64 81h1v1H64z"/><path fill="#b4c4c5" d="M65 81h4v1H65z"/><path fill="#293444" d="M69 81h1v1H69z"/><path fill="#293444" d="M13 82h1v1H13z"/><path fill="#f2c397" d="M14 82h6v1H14z"/><path fill="#293444" d="M20 82h1v1H20z"/><path fill="#e5e9df" d="M21 82h6v1H21z"/><path fill="#293444" d="M27 82h2v1H27z"/><path fill="#b4c4c5" d="M29 82h1v1H29z"/><path fill="#293444" d="M30 82h1v1H30z"/><path fill="#50799b" d="M31 82h4v1H31z"/><path fill="#81acbe" d="M35 82h26v1H35z"/><path fill="#50799b" d="M61 82h4v1H61z"/><path fill="#293444" d="M65 82h2v1H65z"/><path fill="#b4c4c5" d="M67 82h1v1H67z"/><path fill="#e5e9df" d="M68 82h1v1H68z"/><path fill="#293444" d="M69 82h1v1H69z"/><path fill="#293444" d="M13 83h3v1H13z"/><path fill="#f2c397" d="M16 83h3v1H16z"/><path fill="#293444" d="M19 83h2v1H19z"/><path fill="#e5e9df" d="M21 83h4v1H21z"/><path fill="#293444" d="M25 83h3v1H25z"/><path fill="#b4c4c5" d="M28 83h2v1H28z"/><path fill="#293444" d="M30 83h1v1H30z"/><path fill="#50799b" d="M31 83h2v1H31z"/><path fill="#81acbe" d="M33 83h30v1H33z"/><path fill="#50799b" d="M63 83h4v1H63z"/><path fill="#293444" d="M67 83h1v1H67z"/><path fill="#e5e9df" d="M68 83h1v1H68z"/><path fill="#293444" d="M69 83h1v1H69z"/><path fill="#293444" d="M16 84h3v1H16z"/><path fill="#293444" d="M20 84h1v1H20z"/><path fill="#e5e9df" d="M21 84h2v1H21z"/><path fill="#293444" d="M23 84h2v1H23z"/><path fill="#293444" d="M27 84h1v1H27z"/><path fill="#e5e9df" d="M28 84h1v1H28z"/><path fill="#293444" d="M29 84h1v1H29z"/><path fill="#50799b" d="M30 84h2v1H30z"/><path fill="#81acbe" d="M32 84h32v1H32z"/><path fill="#50799b" d="M64 84h3v1H64z"/><path fill="#293444" d="M67 84h1v1H67z"/><path fill="#e5e9df" d="M68 84h1v1H68z"/><path fill="#293444" d="M69 84h1v1H69z"/><path fill="#293444" d="M21 85h2v1H21z"/><path fill="#293444" d="M28 85h2v1H28z"/><path fill="#50799b" d="M30 85h2v1H30z"/><path fill="#81acbe" d="M32 85h32v1H32z"/><path fill="#50799b" d="M64 85h3v1H64z"/><path fill="#293444" d="M67 85h2v1H67z"/><path fill="#293444" d="M28 86h2v1H28z"/><path fill="#50799b" d="M30 86h2v1H30z"/><path fill="#81acbe" d="M32 86h32v1H32z"/><path fill="#50799b" d="M64 86h3v1H64z"/><path fill="#293444" d="M67 86h2v1H67z"/><path fill="#293444" d="M28 87h2v1H28z"/><path fill="#50799b" d="M30 87h2v1H30z"/><path fill="#81acbe" d="M32 87h32v1H32z"/><path fill="#50799b" d="M64 87h3v1H64z"/><path fill="#293444" d="M67 87h2v1H67z"/><path fill="#293444" d="M28 88h1v1H28z"/><path fill="#50799b" d="M29 88h3v1H29z"/><path fill="#81acbe" d="M32 88h32v1H32z"/><path fill="#50799b" d="M64 88h3v1H64z"/><path fill="#293444" d="M67 88h1v1H67z"/><path fill="#293444" d="M28 89h1v1H28z"/><path fill="#50799b" d="M29 89h38v1H29z"/><path fill="#293444" d="M67 89h1v1H67z"/><path fill="#293444" d="M28 90h1v1H28z"/><path fill="#50799b" d="M29 90h38v1H29z"/><path fill="#293444" d="M67 90h1v1H67z"/><path fill="#293444" d="M28 91h1v1H28z"/><path fill="#50799b" d="M29 91h38v1H29z"/><path fill="#293444" d="M67 91h1v1H67z"/><path fill="#293444" d="M28 92h1v1H28z"/><path fill="#50799b" d="M29 92h38v1H29z"/><path fill="#293444" d="M67 92h1v1H67z"/><path fill="#293444" d="M28 93h1v1H28z"/><path fill="#50799b" d="M29 93h38v1H29z"/><path fill="#293444" d="M67 93h1v1H67z"/><path fill="#293444" d="M28 94h1v1H28z"/><path fill="#50799b" d="M29 94h38v1H29z"/><path fill="#293444" d="M67 94h1v1H67z"/><path fill="#293444" d="M28 95h1v1H28z"/><path fill="#50799b" d="M29 95h38v1H29z"/><path fill="#293444" d="M67 95h1v1H67z"/><path fill="#293444" d="M28 96h1v1H28z"/><path fill="#50799b" d="M29 96h38v1H29z"/><path fill="#293444" d="M67 96h1v1H67z"/><path fill="#293444" d="M28 97h1v1H28z"/><path fill="#50799b" d="M29 97h38v1H29z"/><path fill="#293444" d="M67 97h1v1H67z"/><path fill="#293444" d="M28 98h1v1H28z"/><path fill="#50799b" d="M29 98h38v1H29z"/><path fill="#293444" d="M67 98h1v1H67z"/><path fill="#293444" d="M28 99h2v1H28z"/><path fill="#50799b" d="M30 99h36v1H30z"/><path fill="#293444" d="M66 99h2v1H66z"/><path fill="#293444" d="M28 100h3v1H28z"/><path fill="#50799b" d="M31 100h35v1H31z"/><path fill="#293444" d="M66 100h2v1H66z"/><path fill="#293444" d="M28 101h3v1H28z"/><path fill="#50799b" d="M31 101h34v1H31z"/><path fill="#293444" d="M65 101h3v1H65z"/><path fill="#293444" d="M28 102h2v1H28z"/><path fill="#3d5d7d" d="M30 102h1v1H30z"/><path fill="#293444" d="M31 102h1v1H31z"/><path fill="#50799b" d="M32 102h32v1H32z"/><path fill="#3d5d7d" d="M64 102h1v1H64z"/><path fill="#293444" d="M65 102h3v1H65z"/><path fill="#293444" d="M28 103h2v1H28z"/><path fill="#3d5d7d" d="M30 103h2v1H30z"/><path fill="#293444" d="M32 103h1v1H32z"/><path fill="#50799b" d="M33 103h31v1H33z"/><path fill="#293444" d="M64 103h1v1H64z"/><path fill="#3d5d7d" d="M65 103h1v1H65z"/><path fill="#293444" d="M66 103h2v1H66z"/><path fill="#293444" d="M28 104h2v1H28z"/><path fill="#3d5d7d" d="M30 104h2v1H30z"/><path fill="#293444" d="M32 104h1v1H32z"/><path fill="#50799b" d="M33 104h31v1H33z"/><path fill="#293444" d="M64 104h1v1H64z"/><path fill="#3d5d7d" d="M65 104h1v1H65z"/><path fill="#293444" d="M66 104h2v1H66z"/><path fill="#293444" d="M28 105h2v1H28z"/><path fill="#3d5d7d" d="M30 105h3v1H30z"/><path fill="#293444" d="M33 105h1v1H33z"/><path fill="#50799b" d="M34 105h29v1H34z"/><path fill="#293444" d="M63 105h1v1H63z"/><path fill="#3d5d7d" d="M64 105h1v1H64z"/><path fill="#293444" d="M65 105h1v1H65z"/><path fill="#50799b" d="M66 105h1v1H66z"/><path fill="#293444" d="M67 105h1v1H67z"/><path fill="#293444" d="M28 106h2v1H28z"/><path fill="#3d5d7d" d="M30 106h3v1H30z"/><path fill="#293444" d="M33 106h1v1H33z"/><path fill="#50799b" d="M34 106h28v1H34z"/><path fill="#3d5d7d" d="M62 106h1v1H62z"/><path fill="#293444" d="M63 106h1v1H63z"/><path fill="#3d5d7d" d="M64 106h1v1H64z"/><path fill="#293444" d="M65 106h1v1H65z"/><path fill="#50799b" d="M66 106h1v1H66z"/><path fill="#293444" d="M67 106h1v1H67z"/><path fill="#293444" d="M28 107h2v1H28z"/><path fill="#3d5d7d" d="M30 107h4v1H30z"/><path fill="#293444" d="M34 107h29v1H34z"/><path fill="#3d5d7d" d="M63 107h2v1H63z"/><path fill="#293444" d="M65 107h2v1H65z"/><path fill="#293444" d="M29 108h1v1H29z"/><path fill="#3d5d7d" d="M30 108h35v1H30z"/><path fill="#293444" d="M65 108h1v1H65z"/><path fill="#293444" d="M29 109h1v1H29z"/><path fill="#3d5d7d" d="M30 109h35v1H30z"/><path fill="#293444" d="M65 109h1v1H65z"/><path fill="#293444" d="M29 110h1v1H29z"/><path fill="#3d5d7d" d="M30 110h35v1H30z"/><path fill="#293444" d="M65 110h1v1H65z"/><path fill="#293444" d="M29 111h1v1H29z"/><path fill="#3d5d7d" d="M30 111h15v1H30z"/><path fill="#293444" d="M45 111h6v1H45z"/><path fill="#3d5d7d" d="M51 111h13v1H51z"/><path fill="#293444" d="M64 111h1v1H64z"/><path fill="#293444" d="M30 112h2v1H30z"/><path fill="#3d5d7d" d="M32 112h13v1H32z"/><path fill="#293444" d="M45 112h6v1H45z"/><path fill="#3d5d7d" d="M51 112h12v1H51z"/><path fill="#293444" d="M63 112h2v1H63z"/><path fill="#293444" d="M32 113h1v1H32z"/><path fill="#3d5d7d" d="M33 113h12v1H33z"/><path fill="#293444" d="M45 113h6v1H45z"/><path fill="#3d5d7d" d="M51 113h10v1H51z"/><path fill="#293444" d="M61 113h3v1H61z"/><path fill="#293444" d="M32 114h3v1H32z"/><path fill="#3d5d7d" d="M35 114h10v1H35z"/><path fill="#293444" d="M45 114h6v1H45z"/><path fill="#3d5d7d" d="M51 114h9v1H51z"/><path fill="#293444" d="M60 114h4v1H60z"/><path fill="#293444" d="M31 115h35v1H31z"/><path fill="#293444" d="M29 116h2v1H29z"/><path fill="#6e6b70" d="M31 116h10v1H31z"/><path fill="#293444" d="M41 116h10v1H41z"/><path fill="#293444" d="M52 116h4v1H52z"/><path fill="#6e6b70" d="M56 116h7v1H56z"/><path fill="#293444" d="M63 116h5v1H63z"/><path fill="#293444" d="M28 117h3v1H28z"/><path fill="#6e6b70" d="M31 117h10v1H31z"/><path fill="#293444" d="M41 117h10v1H41z"/><path fill="#293444" d="M52 117h4v1H52z"/><path fill="#6e6b70" d="M56 117h7v1H56z"/><path fill="#293444" d="M63 117h7v1H63z"/><path fill="#293444" d="M27 118h24v1H27z"/><path fill="#293444" d="M53 118h18v1H53z"/><path fill="#293444" d="M27 119h24v1H27z"/><path fill="#293444" d="M53 119h18v1H53z"/><path fill="#293444" d="M27 120h44v1H27z"/><path fill="#293444" d="M25 121h47v1H25z"/><path fill="#293444" d="M25 122h47v1H25z"/><path fill="#293444" d="M25 123h6v1H25z"/><path fill="#293444" d="M66 123h6v1H66z"/><path fill="#293444" d="M25 124h6v1H25z"/><path fill="#293444" d="M66 124h6v1H66z"/></svg>