<svg xmlns="http://www.w3.org/2000/svg" width="96" height="128" viewBox="0 0 96 128" shape-rendering="crispEdges"><path fill="#293444" d="M44 7h7v1H44z"/><path fill="#293444" d="M39 8h5v1H39z"/><path fill="#3b424e" d="M44 8h7v1H44z"/><path fill="#293444" d="M51 8h3v1H51z"/><path fill="#293444" d="M37 9h2v1H37z"/><path fill="#3b424e" d="M39 9h15v1H39z"/><path fill="#293444" d="M54 9h4v1H54z"/><path fill="#293444" d="M35 10h2v1H35z"/><path fill="#3b424e" d="M37 10h21v1H37z"/><path fill="#293444" d="M58 10h2v1H58z"/><path fill="#293444" d="M34 11h1v1H34z"/><path fill="#3b424e" d="M35 11h9v1H35z"/><path fill="#5f6978" d="M44 11h1v1H44z"/><path fill="#3b424e" d="M45 11h15v1H45z"/><path fill="#293444" d="M60 11h1v1H60z"/><path fill="#293444" d="M32 12h2v1H32z"/><path fill="#3b424e" d="M34 12h7v1H34z"/><path fill="#5f6978" d="M41 12h14v1H41z"/><path fill="#3b424e" d="M55 12h6v1H55z"/><path fill="#293444" d="M61 12h1v1H61z"/><path fill="#293444" d="M31 13h1v1H31z"/><path fill="#3b424e" d="M32 13h6v1H32z"/><path fill="#5f6978" d="M38 13h19v1H38z"/><path fill="#3b424e" d="M57 13h5v1H57z"/><path fill="#293444" d="M62 13h2v1H62z"/><path fill="#3b424e" d="M30 14h1v1H30z"/><path fill="#293444" d="M31 14h1v1H31z"/><path fill="#3b424e" d="M32 14h3v1H32z"/><path fill="#5f6978" d="M35 14h23v1H35z"/><path fill="#3b424e" d="M58 14h6v1H58z"/><path fill="#293444" d="M64 14h1v1H64z"/><path fill="#293444" d="M30 15h1v1H30z"/><path fill="#3b424e" d="M31 15h3v1H31z"/><path fill="#5f6978" d="M34 15h13v1H34z"/><path fill="#3b424e" d="M47 15h7v1H47z"/><path fill="#5f6978" d="M54 15h5v1H54z"/><path fill="#3b424e" d="M59 15h6v1H59z"/><path fill="#293444" d="M65 15h1v1H65z"/><path fill="#293444" d="M30 16h1v1H30z"/><path fill="#3b424e" d="M31 16h2v1H31z"/><path fill="#5f6978" d="M33 16h11v1H33z"/><path fill="#3b424e" d="M44 16h21v1H44z"/><path fill="#293444" d="M65 16h1v1H65z"/><path fill="#293444" d="M29 17h1v1H29z"/><path fill="#3b424e" d="M30 17h3v1H30z"/><path fill="#5f6978" d="M33 17h8v1H33z"/><path fill="#3b424e" d="M41 17h25v1H41z"/><path fill="#293444" d="M66 17h1v1H66z"/><path fill="#3b424e" d="M28 18h1v1H28z"/><path fill="#293444" d="M29 18h1v1H29z"/><path fill="#3b424e" d="M30 18h2v1H30z"/><path fill="#5f6978" d="M32 18h5v1H32z"/><path fill="#3b424e" d="M37 18h8v1H37z"/><path fill="#293444" d="M45 18h11v1H45z"/><path fill="#3b424e" d="M56 18h10v1H56z"/><path fill="#293444" d="M66 18h1v1H66z"/><path fill="#293444" d="M28 19h1v1H28z"/><path fill="#3b424e" d="M29 19h15v1H29z"/><path fill="#293444" d="M44 19h1v1H44z"/><path fill="#f2c397" d="M45 19h11v1H45z"/><path fill="#293444" d="M56 19h2v1H56z"/><path fill="#3b424e" d="M58 19h9v1H58z"/><path fill="#293444" d="M67 19h1v1H67z"/><path fill="#293444" d="M28 20h1v1H28z"/><path fill="#3b424e" d="M29 20h14v1H29z"/><path fill="#293444" d="M43 20h1v1H43z"/><path fill="#ffe0b0" d="M44 20h14v1H44z"/><path fill="#293444" d="M58 20h1v1H58z"/><path fill="#3b424e" d="M59 20h8v1H59z"/><path fill="#293444" d="M67 20h1v1H67z"/><path fill="#293444" d="M27 21h1v1H27z"/><path fill="#3b424e" d="M28 21h15v1H28z"/><path fill="#293444" d="M43 21h1v1H43z"/><path fill="#ffe0b0" d="M44 21h15v1H44z"/><path fill="#293444" d="M59 21h2v1H59z"/><path fill="#3b424e" d="M61 21h6v1H61z"/><path fill="#293444" d="M67 21h1v1H67z"/><path fill="#293444" d="M27 22h1v1H27z"/><path fill="#3b424e" d="M28 22h14v1H28z"/><path fill="#293444" d="M42 22h1v1H42z"/><path fill="#ffe0b0" d="M43 22h17v1H43z"/><path fill="#f2c397" d="M60 22h1v1H60z"/><path fill="#293444" d="M61 22h1v1H61z"/><path fill="#3b424e" d="M62 22h6v1H62z"/><path fill="#293444" d="M68 22h1v1H68z"/><path fill="#293444" d="M27 23h1v1H27z"/><path fill="#3b424e" d="M28 23h10v1H28z"/><path fill="#293444" d="M38 23h4v1H38z"/><path fill="#ffe0b0" d="M42 23h18v1H42z"/><path fill="#f2c397" d="M60 23h1v1H60z"/><path fill="#293444" d="M61 23h1v1H61z"/><path fill="#3b424e" d="M62 23h6v1H62z"/><path fill="#293444" d="M68 23h1v1H68z"/><path fill="#293444" d="M27 24h1v1H27z"/><path fill="#3b424e" d="M28 24h6v1H28z"/><path fill="#293444" d="M34 24h4v1H34z"/><path fill="#ffe0b0" d="M38 24h23v1H38z"/><path fill="#293444" d="M61 24h1v1H61z"/><path fill="#3b424e" d="M62 24h6v1H62z"/><path fill="#293444" d="M68 24h1v1H68z"/><path fill="#293444" d="M27 25h1v1H27z"/><path fill="#3b424e" d="M28 25h6v1H28z"/><path fill="#293444" d="M34 25h1v1H34z"/><path fill="#ffe0b0" d="M35 25h26v1H35z"/><path fill="#293444" d="M61 25h1v1H61z"/><path fill="#3b424e" d="M62 25h5v1H62z"/><path fill="#293444" d="M67 25h1v1H67z"/><path fill="#293444" d="M27 26h1v1H27z"/><path fill="#3b424e" d="M28 26h6v1H28z"/><path fill="#293444" d="M34 26h1v1H34z"/><path fill="#ffe0b0" d="M35 26h26v1H35z"/><path fill="#293444" d="M61 26h1v1H61z"/><path fill="#3b424e" d="M62 26h1v1H62z"/><path fill="#949a9b" d="M63 26h2v1H63z"/><path fill="#3b424e" d="M65 26h2v1H65z"/><path fill="#293444" d="M67 26h1v1H67z"/><path fill="#293444" d="M28 27h1v1H28z"/><path fill="#3b424e" d="M29 27h1v1H29z"/><path fill="#949a9b" d="M30 27h2v1H30z"/><path fill="#3b424e" d="M32 27h1v1H32z"/><path fill="#293444" d="M33 27h1v1H33z"/><path fill="#ffe0b0" d="M34 27h27v1H34z"/><path fill="#293444" d="M61 27h1v1H61z"/><path fill="#3b424e" d="M62 27h1v1H62z"/><path fill="#949a9b" d="M63 27h2v1H63z"/><path fill="#3b424e" d="M65 27h2v1H65z"/><path fill="#293444" d="M67 27h1v1H67z"/><path fill="#293444" d="M28 28h1v1H28z"/><path fill="#3b424e" d="M29 28h1v1H29z"/><path fill="#949a9b" d="M30 28h2v1H30z"/><path fill="#3b424e" d="M32 28h1v1H32z"/><path fill="#293444" d="M33 28h1v1H33z"/><path fill="#ffe0b0" d="M34 28h6v1H34z"/><path fill="#293444" d="M40 28h2v1H40z"/><path fill="#ffe0b0" d="M42 28h11v1H42z"/><path fill="#293444" d="M53 28h2v1H53z"/><path fill="#ffe0b0" d="M55 28h6v1H55z"/><path fill="#293444" d="M61 28h1v1H61z"/><path fill="#3b424e" d="M62 28h1v1H62z"/><path fill="#949a9b" d="M63 28h2v1H63z"/><path fill="#3b424e" d="M65 28h2v1H65z"/><path fill="#293444" d="M67 28h1v1H67z"/><path fill="#293444" d="M28 29h1v1H28z"/><path fill="#3b424e" d="M29 29h1v1H29z"/><path fill="#949a9b" d="M30 29h2v1H30z"/><path fill="#3b424e" d="M32 29h1v1H32z"/><path fill="#293444" d="M33 29h1v1H33z"/><path fill="#ffe0b0" d="M34 29h4v1H34z"/><path fill="#293444" d="M38 29h2v1H38z"/><path fill="#ffe0b0" d="M40 29h15v1H40z"/><path fill="#293444" d="M55 29h3v1H55z"/><path fill="#ffe0b0" d="M58 29h3v1H58z"/><path fill="#293444" d="M61 29h1v1H61z"/><path fill="#3b424e" d="M62 29h1v1H62z"/><path fill="#949a9b" d="M63 29h2v1H63z"/><path fill="#3b424e" d="M65 29h1v1H65z"/><path fill="#293444" d="M66 29h1v1H66z"/><path fill="#293444" d="M27 30h2v1H27z"/><path fill="#3b424e" d="M29 30h1v1H29z"/><path fill="#949a9b" d="M30 30h2v1H30z"/><path fill="#3b424e" d="M32 30h1v1H32z"/><path fill="#293444" d="M33 30h1v1H33z"/><path fill="#ffe0b0" d="M34 30h2v1H34z"/><path fill="#293444" d="M36 30h2v1H36z"/><path fill="#ffe0b0" d="M38 30h20v1H38z"/><path fill="#293444" d="M58 30h2v1H58z"/><path fill="#ffe0b0" d="M60 30h1v1H60z"/><path fill="#293444" d="M61 30h1v1H61z"/><path fill="#3b424e" d="M62 30h1v1H62z"/><path fill="#949a9b" d="M63 30h2v1H63z"/><path fill="#3b424e" d="M65 30h1v1H65z"/><path fill="#293444" d="M66 30h2v1H66z"/><path fill="#293444" d="M26 31h1v1H26z"/><path fill="#f2c397" d="M27 31h1v1H27z"/><path fill="#293444" d="M28 31h1v1H28z"/><path fill="#3b424e" d="M29 31h1v1H29z"/><path fill="#949a9b" d="M30 31h2v1H30z"/><path fill="#3b424e" d="M32 31h1v1H32z"/><path fill="#293444" d="M33 31h1v1H33z"/><path fill="#ffe0b0" d="M34 31h27v1H34z"/><path fill="#293444" d="M61 31h1v1H61z"/><path fill="#3b424e" d="M62 31h1v1H62z"/><path fill="#949a9b" d="M63 31h2v1H63z"/><path fill="#3b424e" d="M65 31h1v1H65z"/><path fill="#293444" d="M66 31h1v1H66z"/><path fill="#f2c397" d="M67 31h1v1H67z"/><path fill="#293444" d="M68 31h1v1H68z"/><path fill="#293444" d="M26 32h1v1H26z"/><path fill="#f2c397" d="M27 32h1v1H27z"/><path fill="#293444" d="M28 32h2v1H28z"/><path fill="#949a9b" d="M30 32h2v1H30z"/><path fill="#293444" d="M32 32h1v1H32z"/><path fill="#ffe0b0" d="M33 32h29v1H33z"/><path fill="#293444" d="M62 32h1v1H62z"/><path fill="#949a9b" d="M63 32h2v1H63z"/><path fill="#3b424e" d="M65 32h1v1H65z"/><path fill="#293444" d="M66 32h1v1H66z"/><path fill="#f2c397" d="M67 32h1v1H67z"/><path fill="#293444" d="M68 32h1v1H68z"/><path fill="#293444" d="M25 33h1v1H25z"/><path fill="#f2c397" d="M26 33h3v1H26z"/><path fill="#293444" d="M29 33h1v1H29z"/><path fill="#949a9b" d="M30 33h2v1H30z"/><path fill="#293444" d="M32 33h1v1H32z"/><path fill="#ffe0b0" d="M33 33h28v1H33z"/><path fill="#f2c397" d="M61 33h2v1H61z"/><path fill="#949a9b" d="M63 33h2v1H63z"/><path fill="#293444" d="M65 33h1v1H65z"/><path fill="#f2c397" d="M66 33h3v1H66z"/><path fill="#293444" d="M69 33h1v1H69z"/><path fill="#293444" d="M25 34h1v1H25z"/><path fill="#f2c397" d="M26 34h3v1H26z"/><path fill="#293444" d="M29 34h1v1H29z"/><path fill="#949a9b" d="M30 34h2v1H30z"/><path fill="#293444" d="M32 34h1v1H32z"/><path fill="#ffe0b0" d="M33 34h5v1H33z"/><path fill="#293444" d="M38 34h2v1H38z"/><path fill="#ffe0b0" d="M40 34h15v1H40z"/><path fill="#293444" d="M55 34h2v1H55z"/><path fill="#ffe0b0" d="M57 34h4v1H57z"/><path fill="#d89778" d="M61 34h2v1H61z"/><path fill="#949a9b" d="M63 34h2v1H63z"/><path fill="#293444" d="M65 34h1v1H65z"/><path fill="#f2c397" d="M66 34h3v1H66z"/><path fill="#293444" d="M69 34h1v1H69z"/><path fill="#293444" d="M25 35h1v1H25z"/><path fill="#f2c397" d="M26 35h3v1H26z"/><path fill="#293444" d="M29 35h1v1H29z"/><path fill="#f2c397" d="M30 35h3v1H30z"/><path fill="#ffe0b0" d="M33 35h5v1H33z"/><path fill="#293444" d="M38 35h2v1H38z"/><path fill="#ffe0b0" d="M40 35h15v1H40z"/><path fill="#293444" d="M55 35h2v1H55z"/><path fill="#ffe0b0" d="M57 35h4v1H57z"/><path fill="#d89778" d="M61 35h2v1H61z"/><path fill="#f2c397" d="M63 35h2v1H63z"/><path fill="#293444" d="M65 35h1v1H65z"/><path fill="#f2c397" d="M66 35h3v1H66z"/><path fill="#293444" d="M69 35h1v1H69z"/><path fill="#293444" d="M25 36h1v1H25z"/><path fill="#f2c397" d="M26 36h3v1H26z"/><path fill="#293444" d="M29 36h1v1H29z"/><path fill="#f2c397" d="M30 36h4v1H30z"/><path fill="#ffe0b0" d="M34 36h4v1H34z"/><path fill="#293444" d="M38 36h2v1H38z"/><path fill="#ffe0b0" d="M40 36h15v1H40z"/><path fill="#293444" d="M55 36h2v1H55z"/><path fill="#ffe0b0" d="M57 36h4v1H57z"/><path fill="#d89778" d="M61 36h2v1H61z"/><path fill="#f2c397" d="M63 36h1v1H63z"/><path fill="#293444" d="M64 36h1v1H64z"/><path fill="#f2c397" d="M65 36h4v1H65z"/><path fill="#293444" d="M69 36h1v1H69z"/><path fill="#293444" d="M25 37h1v1H25z"/><path fill="#f2c397" d="M26 37h3v1H26z"/><path fill="#293444" d="M29 37h1v1H29z"/><path fill="#f2c397" d="M30 37h4v1H30z"/><path fill="#ffe0b0" d="M34 37h13v1H34z"/><path fill="#d89778" d="M47 37h1v1H47z"/><path fill="#ffe0b0" d="M48 37h13v1H48z"/><path fill="#d89778" d="M61 37h2v1H61z"/><path fill="#f2c397" d="M63 37h1v1H63z"/><path fill="#293444" d="M64 37h1v1H64z"/><path fill="#f2c397" d="M65 37h4v1H65z"/><path fill="#293444" d="M69 37h1v1H69z"/><path fill="#293444" d="M26 38h1v1H26z"/><path fill="#f2c397" d="M27 38h2v1H27z"/><path fill="#293444" d="M29 38h1v1H29z"/><path fill="#f2c397" d="M30 38h4v1H30z"/><path fill="#ffe0b0" d="M34 38h4v1H34z"/><path fill="#71b7cf" d="M38 38h2v1H38z"/><path fill="#ffe0b0" d="M40 38h7v1H40z"/><path fill="#d89778" d="M47 38h1v1H47z"/><path fill="#ffe0b0" d="M48 38h7v1H48z"/><path fill="#71b7cf" d="M55 38h2v1H55z"/><path fill="#ffe0b0" d="M57 38h4v1H57z"/><path fill="#d89778" d="M61 38h2v1H61z"/><path fill="#f2c397" d="M63 38h1v1H63z"/><path fill="#293444" d="M64 38h1v1H64z"/><path fill="#f2c397" d="M65 38h3v1H65z"/><path fill="#293444" d="M68 38h1v1H68z"/><path fill="#293444" d="M26 39h1v1H26z"/><path fill="#f2c397" d="M27 39h2v1H27z"/><path fill="#293444" d="M29 39h1v1H29z"/><path fill="#f2c397" d="M30 39h4v1H30z"/><path fill="#ffe0b0" d="M34 39h4v1H34z"/><path fill="#71b7cf" d="M38 39h2v1H38z"/><path fill="#ffe0b0" d="M40 39h6v1H40z"/><path fill="#d89778" d="M46 39h1v1H46z"/><path fill="#ffe0b0" d="M47 39h8v1H47z"/><path fill="#71b7cf" d="M55 39h2v1H55z"/><path fill="#ffe0b0" d="M57 39h4v1H57z"/><path fill="#d89778" d="M61 39h2v1H61z"/><path fill="#f2c397" d="M63 39h1v1H63z"/><path fill="#293444" d="M64 39h1v1H64z"/><path fill="#f2c397" d="M65 39h3v1H65z"/><path fill="#293444" d="M68 39h1v1H68z"/><path fill="#293444" d="M27 40h1v1H27z"/><path fill="#f2c397" d="M28 40h1v1H28z"/><path fill="#293444" d="M29 40h1v1H29z"/><path fill="#f2c397" d="M30 40h4v1H30z"/><path fill="#ffe0b0" d="M34 40h4v1H34z"/><path fill="#c9f0e8" d="M38 40h1v1H38z"/><path fill="#71b7cf" d="M39 40h1v1H39z"/><path fill="#ffe0b0" d="M40 40h6v1H40z"/><path fill="#d89778" d="M46 40h3v1H46z"/><path fill="#ffe0b0" d="M49 40h6v1H49z"/><path fill="#71b7cf" d="M55 40h2v1H55z"/><path fill="#ffe0b0" d="M57 40h3v1H57z"/><path fill="#f2c397" d="M60 40h1v1H60z"/><path fill="#d89778" d="M61 40h2v1H61z"/><path fill="#f2c397" d="M63 40h1v1H63z"/><path fill="#293444" d="M64 40h1v1H64z"/><path fill="#f2c397" d="M65 40h2v1H65z"/><path fill="#293444" d="M67 40h1v1H67z"/><path fill="#293444" d="M28 41h3v1H28z"/><path fill="#f2c397" d="M31 41h5v1H31z"/><path fill="#ffe0b0" d="M36 41h2v1H36z"/><path fill="#c9f0e8" d="M38 41h1v1H38z"/><path fill="#71b7cf" d="M39 41h1v1H39z"/><path fill="#ffe0b0" d="M40 41h15v1H40z"/><path fill="#71b7cf" d="M55 41h2v1H55z"/><path fill="#ffe0b0" d="M57 41h3v1H57z"/><path fill="#f2c397" d="M60 41h1v1H60z"/><path fill="#d89778" d="M61 41h2v1H61z"/><path fill="#f2c397" d="M63 41h1v1H63z"/><path fill="#293444" d="M64 41h3v1H64z"/><path fill="#293444" d="M30 42h1v1H30z"/><path fill="#f2c397" d="M31 42h6v1H31z"/><path fill="#ffe0b0" d="M37 42h1v1H37z"/><path fill="#c9f0e8" d="M38 42h1v1H38z"/><path fill="#71b7cf" d="M39 42h1v1H39z"/><path fill="#ffe0b0" d="M40 42h15v1H40z"/><path fill="#71b7cf" d="M55 42h2v1H55z"/><path fill="#ffe0b0" d="M57 42h2v1H57z"/><path fill="#f2c397" d="M59 42h5v1H59z"/><path fill="#293444" d="M64 42h1v1H64z"/><path fill="#293444" d="M31 43h1v1H31z"/><path fill="#f2c397" d="M32 43h6v1H32z"/><path fill="#71b7cf" d="M38 43h2v1H38z"/><path fill="#ffe0b0" d="M40 43h5v1H40z"/><path fill="#293444" d="M45 43h6v1H45z"/><path fill="#ffe0b0" d="M51 43h4v1H51z"/><path fill="#71b7cf" d="M55 43h2v1H55z"/><path fill="#ffe0b0" d="M57 43h1v1H57z"/><path fill="#f2c397" d="M58 43h5v1H58z"/><path fill="#293444" d="M63 43h1v1H63z"/><path fill="#293444" d="M31 44h1v1H31z"/><path fill="#f2c397" d="M32 44h6v1H32z"/><path fill="#71b7cf" d="M38 44h2v1H38z"/><path fill="#ffe0b0" d="M40 44h3v1H40z"/><path fill="#293444" d="M43 44h2v1H43z"/><path fill="#293444" d="M51 44h2v1H51z"/><path fill="#ffe0b0" d="M53 44h2v1H53z"/><path fill="#71b7cf" d="M55 44h2v1H55z"/><path fill="#f2c397" d="M57 44h6v1H57z"/><path fill="#293444" d="M63 44h1v1H63z"/><path fill="#293444" d="M32 45h1v1H32z"/><path fill="#f2c397" d="M33 45h9v1H33z"/><path fill="#293444" d="M42 45h12v1H42z"/><path fill="#ffe0b0" d="M54 45h3v1H54z"/><path fill="#f2c397" d="M57 45h5v1H57z"/><path fill="#293444" d="M62 45h1v1H62z"/><path fill="#293444" d="M32 46h1v1H32z"/><path fill="#f2c397" d="M33 46h1v1H33z"/><path fill="#d89778" d="M34 46h1v1H34z"/><path fill="#f2c397" d="M35 46h26v1H35z"/><path fill="#293444" d="M61 46h1v1H61z"/><path fill="#f2c397" d="M62 46h1v1H62z"/><path fill="#293444" d="M33 47h1v1H33z"/><path fill="#f2c397" d="M34 47h1v1H34z"/><path fill="#d89778" d="M35 47h2v1H35z"/><path fill="#f2c397" d="M37 47h24v1H37z"/><path fill="#293444" d="M61 47h1v1H61z"/><path fill="#293444" d="M33 48h1v1H33z"/><path fill="#f2c397" d="M34 48h3v1H34z"/><path fill="#d89778" d="M37 48h2v1H37z"/><path fill="#f2c397" d="M39 48h21v1H39z"/><path fill="#293444" d="M60 48h1v1H60z"/><path fill="#293444" d="M34 49h2v1H34z"/><path fill="#f2c397" d="M36 49h3v1H36z"/><path fill="#d89778" d="M39 49h2v1H39z"/><path fill="#f2c397" d="M41 49h19v1H41z"/><path fill="#293444" d="M60 49h1v1H60z"/><path fill="#293444" d="M36 50h2v1H36z"/><path fill="#f2c397" d="M38 50h3v1H38z"/><path fill="#d89778" d="M41 50h1v1H41z"/><path fill="#f2c397" d="M42 50h17v1H42z"/><path fill="#293444" d="M59 50h1v1H59z"/><path fill="#293444" d="M38 51h2v1H38z"/><path fill="#f2c397" d="M40 51h17v1H40z"/><path fill="#293444" d="M57 51h2v1H57z"/><path fill="#293444" d="M32 52h2v1H32z"/><path fill="#293444" d="M38 52h4v1H38z"/><path fill="#f2c397" d="M42 52h13v1H42z"/><path fill="#293444" d="M55 52h5v1H55z"/><path fill="#293444" d="M62 52h2v1H62z"/><path fill="#293444" d="M32 53h1v1H32z"/><path fill="#d7b582" d="M33 53h1v1H33z"/><path fill="#293444" d="M34 53h28v1H34z"/><path fill="#d7b582" d="M62 53h1v1H62z"/><path fill="#293444" d="M63 53h1v1H63z"/><path fill="#293444" d="M31 54h1v1H31z"/><path fill="#d7b582" d="M32 54h5v1H32z"/><path fill="#293444" d="M37 54h3v1H37z"/><path fill="#528e86" d="M40 54h17v1H40z"/><path fill="#293444" d="M57 54h2v1H57z"/><path fill="#d7b582" d="M59 54h5v1H59z"/><path fill="#293444" d="M64 54h1v1H64z"/><path fill="#293444" d="M31 55h1v1H31z"/><path fill="#d7b582" d="M32 55h8v1H32z"/><path fill="#293444" d="M40 55h17v1H40z"/><path fill="#d7b582" d="M57 55h7v1H57z"/><path fill="#293444" d="M64 55h3v1H64z"/><path fill="#293444" d="M30 56h1v1H30z"/><path fill="#d7b582" d="M31 56h33v1H31z"/><path fill="#293444" d="M64 56h2v1H64z"/><path fill="#e5e9df" d="M66 56h1v1H66z"/><path fill="#293444" d="M67 56h1v1H67z"/><path fill="#293444" d="M29 57h2v1H29z"/><path fill="#d7b582" d="M31 57h33v1H31z"/><path fill="#293444" d="M64 57h1v1H64z"/><path fill="#528e86" d="M65 57h1v1H65z"/><path fill="#293444" d="M66 57h3v1H66z"/><path fill="#293444" d="M28 58h2v1H28z"/><path fill="#d7b582" d="M30 58h35v1H30z"/><path fill="#293444" d="M65 58h1v1H65z"/><path fill="#528e86" d="M66 58h2v1H66z"/><path fill="#293444" d="M68 58h1v1H68z"/><path fill="#293444" d="M25 59h1v1H25z"/><path fill="#293444" d="M27 59h1v1H27z"/><path fill="#e5e9df" d="M28 59h1v1H28z"/><path fill="#293444" d="M29 59h1v1H29z"/><path fill="#d7b582" d="M30 59h30v1H30z"/><path fill="#293444" d="M60 59h3v1H60z"/><path fill="#d7b582" d="M63 59h2v1H63z"/><path fill="#293444" d="M65 59h1v1H65z"/><path fill="#528e86" d="M66 59h2v1H66z"/><path fill="#293444" d="M68 59h2v1H68z"/><path fill="#293444" d="M24 60h1v1H24z"/><path fill="#e5e9df" d="M25 60h1v1H25z"/><path fill="#293444" d="M26 60h2v1H26z"/><path fill="#e5e9df" d="M28 60h1v1H28z"/><path fill="#293444" d="M29 60h2v1H29z"/><path fill="#d7b582" d="M31 60h24v1H31z"/><path fill="#293444" d="M55 60h5v1H55z"/><path fill="#d7b582" d="M60 60h2v1H60z"/><path fill="#293444" d="M62 60h1v1H62z"/><path fill="#d7b582" d="M63 60h2v1H63z"/><path fill="#293444" d="M65 60h1v1H65z"/><path fill="#528e86" d="M66 60h3v1H66z"/><path fill="#293444" d="M69 60h2v1H69z"/><path fill="#293444" d="M24 61h1v1H24z"/><path fill="#e5e9df" d="M25 61h2v1H25z"/><path fill="#293444" d="M27 61h2v1H27z"/><path fill="#80b4a0" d="M29 61h2v1H29z"/><path fill="#293444" d="M31 61h2v1H31z"/><path fill="#d7b582" d="M33 61h6v1H33z"/><path fill="#293444" d="M39 61h1v1H39z"/><path fill="#d7b582" d="M40 61h12v1H40z"/><path fill="#293444" d="M52 61h4v1H52z"/><path fill="#d7b582" d="M56 61h6v1H56z"/><path fill="#293444" d="M62 61h3v1H62z"/><path fill="#80b4a0" d="M65 61h1v1H65z"/><path fill="#528e86" d="M66 61h3v1H66z"/><path fill="#293444" d="M69 61h1v1H69z"/><path fill="#e5e9df" d="M70 61h1v1H70z"/><path fill="#293444" d="M71 61h1v1H71z"/><path fill="#293444" d="M23 62h1v1H23z"/><path fill="#e5e9df" d="M24 62h3v1H24z"/><path fill="#293444" d="M27 62h1v1H27z"/><path fill="#528e86" d="M28 62h1v1H28z"/><path fill="#80b4a0" d="M29 62h4v1H29z"/><path fill="#293444" d="M33 62h1v1H33z"/><path fill="#d7b582" d="M34 62h5v1H34z"/><path fill="#293444" d="M39 62h1v1H39z"/><path fill="#d7b582" d="M40 62h12v1H40z"/><path fill="#293444" d="M52 62h1v1H52z"/><path fill="#d7b582" d="M53 62h2v1H53z"/><path fill="#293444" d="M55 62h1v1H55z"/><path fill="#d7b582" d="M56 62h6v1H56z"/><path fill="#293444" d="M62 62h1v1H62z"/><path fill="#80b4a0" d="M63 62h4v1H63z"/><path fill="#528e86" d="M67 62h3v1H67z"/><path fill="#293444" d="M70 62h2v1H70z"/><path fill="#293444" d="M22 63h1v1H22z"/><path fill="#e5e9df" d="M23 63h4v1H23z"/><path fill="#293444" d="M27 63h1v1H27z"/><path fill="#528e86" d="M28 63h1v1H28z"/><path fill="#80b4a0" d="M29 63h5v1H29z"/><path fill="#293444" d="M34 63h1v1H34z"/><path fill="#d7b582" d="M35 63h5v1H35z"/><path fill="#293444" d="M40 63h1v1H40z"/><path fill="#d7b582" d="M41 63h11v1H41z"/><path fill="#293444" d="M52 63h1v1H52z"/><path fill="#d7b582" d="M53 63h1v1H53z"/><path fill="#293444" d="M54 63h1v1H54z"/><path fill="#d7b582" d="M55 63h7v1H55z"/><path fill="#293444" d="M62 63h1v1H62z"/><path fill="#80b4a0" d="M63 63h5v1H63z"/><path fill="#528e86" d="M68 63h3v1H68z"/><path fill="#293444" d="M71 63h2v1H71z"/><path fill="#293444" d="M21 64h1v1H21z"/><path fill="#e5e9df" d="M22 64h4v1H22z"/><path fill="#293444" d="M26 64h1v1H26z"/><path fill="#528e86" d="M27 64h2v1H27z"/><path fill="#80b4a0" d="M29 64h6v1H29z"/><path fill="#293444" d="M35 64h6v1H35z"/><path fill="#d7b582" d="M41 64h11v1H41z"/><path fill="#293444" d="M52 64h1v1H52z"/><path fill="#d7b582" d="M53 64h1v1H53z"/><path fill="#293444" d="M54 64h1v1H54z"/><path fill="#d7b582" d="M55 64h7v1H55z"/><path fill="#293444" d="M62 64h1v1H62z"/><path fill="#80b4a0" d="M63 64h5v1H63z"/><path fill="#528e86" d="M68 64h3v1H68z"/><path fill="#293444" d="M71 64h1v1H71z"/><path fill="#e5e9df" d="M72 64h1v1H72z"/><path fill="#293444" d="M73 64h1v1H73z"/><path fill="#293444" d="M21 65h1v1H21z"/><path fill="#e5e9df" d="M22 65h3v1H22z"/><path fill="#293444" d="M25 65h1v1H25z"/><path fill="#528e86" d="M26 65h3v1H26z"/><path fill="#80b4a0" d="M29 65h11v1H29z"/><path fill="#293444" d="M40 65h9v1H40z"/><path fill="#d7b582" d="M49 65h3v1H49z"/><path fill="#293444" d="M52 65h2v1H52z"/><path fill="#edcc96" d="M54 65h2v1H54z"/><path fill="#d7b582" d="M56 65h5v1H56z"/><path fill="#293444" d="M61 65h1v1H61z"/><path fill="#d7b582" d="M62 65h1v1H62z"/><path fill="#80b4a0" d="M63 65h5v1H63z"/><path fill="#528e86" d="M68 65h4v1H68z"/><path fill="#293444" d="M72 65h2v1H72z"/><path fill="#293444" d="M20 66h1v1H20z"/><path fill="#e5e9df" d="M21 66h4v1H21z"/><path fill="#293444" d="M25 66h1v1H25z"/><path fill="#528e86" d="M26 66h3v1H26z"/><path fill="#80b4a0" d="M29 66h12v1H29z"/><path fill="#293444" d="M41 66h1v1H41z"/><path fill="#80b4a0" d="M42 66h4v1H42z"/><path fill="#38666d" d="M46 66h2v1H46z"/><path fill="#80b4a0" d="M48 66h1v1H48z"/><path fill="#293444" d="M49 66h5v1H49z"/><path fill="#edcc96" d="M54 66h2v1H54z"/><path fill="#d7b582" d="M56 66h5v1H56z"/><path fill="#293444" d="M61 66h1v1H61z"/><path fill="#80b4a0" d="M62 66h6v1H62z"/><path fill="#528e86" d="M68 66h4v1H68z"/><path fill="#293444" d="M72 66h2v1H72z"/><path fill="#293444" d="M20 67h1v1H20z"/><path fill="#e5e9df" d="M21 67h3v1H21z"/><path fill="#293444" d="M24 67h1v1H24z"/><path fill="#528e86" d="M25 67h4v1H25z"/><path fill="#80b4a0" d="M29 67h13v1H29z"/><path fill="#293444" d="M42 67h1v1H42z"/><path fill="#80b4a0" d="M43 67h3v1H43z"/><path fill="#38666d" d="M46 67h2v1H46z"/><path fill="#80b4a0" d="M48 67h4v1H48z"/><path fill="#293444" d="M52 67h1v1H52z"/><path fill="#d7b582" d="M53 67h1v1H53z"/><path fill="#edcc96" d="M54 67h2v1H54z"/><path fill="#d7b582" d="M56 67h5v1H56z"/><path fill="#293444" d="M61 67h1v1H61z"/><path fill="#80b4a0" d="M62 67h6v1H62z"/><path fill="#528e86" d="M68 67h5v1H68z"/><path fill="#293444" d="M73 67h1v1H73z"/><path fill="#293444" d="M20 68h1v1H20z"/><path fill="#e5e9df" d="M21 68h3v1H21z"/><path fill="#293444" d="M24 68h1v1H24z"/><path fill="#528e86" d="M25 68h5v1H25z"/><path fill="#80b4a0" d="M30 68h12v1H30z"/><path fill="#293444" d="M42 68h1v1H42z"/><path fill="#80b4a0" d="M43 68h3v1H43z"/><path fill="#38666d" d="M46 68h2v1H46z"/><path fill="#80b4a0" d="M48 68h4v1H48z"/><path fill="#293444" d="M52 68h1v1H52z"/><path fill="#d7b582" d="M53 68h1v1H53z"/><path fill="#edcc96" d="M54 68h2v1H54z"/><path fill="#d7b582" d="M56 68h5v1H56z"/><path fill="#293444" d="M61 68h1v1H61z"/><path fill="#80b4a0" d="M62 68h6v1H62z"/><path fill="#528e86" d="M68 68h5v1H68z"/><path fill="#293444" d="M73 68h1v1H73z"/><path fill="#293444" d="M20 69h1v1H20z"/><path fill="#e5e9df" d="M21 69h2v1H21z"/><path fill="#293444" d="M23 69h10v1H23z"/><path fill="#80b4a0" d="M33 69h10v1H33z"/><path fill="#293444" d="M43 69h1v1H43z"/><path fill="#80b4a0" d="M44 69h2v1H44z"/><path fill="#38666d" d="M46 69h2v1H46z"/><path fill="#80b4a0" d="M48 69h3v1H48z"/><path fill="#293444" d="M51 69h2v1H51z"/><path fill="#d7b582" d="M53 69h1v1H53z"/><path fill="#edcc96" d="M54 69h2v1H54z"/><path fill="#d7b582" d="M56 69h5v1H56z"/><path fill="#293444" d="M61 69h1v1H61z"/><path fill="#80b4a0" d="M62 69h6v1H62z"/><path fill="#528e86" d="M68 69h6v1H68z"/><path fill="#293444" d="M74 69h1v1H74z"/><path fill="#293444" d="M20 70h1v1H20z"/><path fill="#e5e9df" d="M21 70h2v1H21z"/><path fill="#293444" d="M23 70h2v1H23z"/><path fill="#528e86" d="M25 70h8v1H25z"/><path fill="#293444" d="M33 70h1v1H33z"/><path fill="#80b4a0" d="M34 70h9v1H34z"/><path fill="#293444" d="M43 70h1v1H43z"/><path fill="#80b4a0" d="M44 70h2v1H44z"/><path fill="#38666d" d="M46 70h2v1H46z"/><path fill="#80b4a0" d="M48 70h3v1H48z"/><path fill="#293444" d="M51 70h2v1H51z"/><path fill="#d7b582" d="M53 70h1v1H53z"/><path fill="#edcc96" d="M54 70h2v1H54z"/><path fill="#d7b582" d="M56 70h5v1H56z"/><path fill="#293444" d="M61 70h1v1H61z"/><path fill="#80b4a0" d="M62 70h5v1H62z"/><path fill="#528e86" d="M67 70h7v1H67z"/><path fill="#293444" d="M74 70h1v1H74z"/><path fill="#293444" d="M20 71h1v1H20z"/><path fill="#e5e9df" d="M21 71h1v1H21z"/><path fill="#b4c4c5" d="M22 71h1v1H22z"/><path fill="#293444" d="M23 71h2v1H23z"/><path fill="#528e86" d="M25 71h9v1H25z"/><path fill="#293444" d="M34 71h1v1H34z"/><path fill="#80b4a0" d="M35 71h9v1H35z"/><path fill="#293444" d="M44 71h1v1H44z"/><path fill="#80b4a0" d="M45 71h1v1H45z"/><path fill="#38666d" d="M46 71h2v1H46z"/><path fill="#80b4a0" d="M48 71h2v1H48z"/><path fill="#293444" d="M50 71h1v1H50z"/><path fill="#80b4a0" d="M51 71h1v1H51z"/><path fill="#293444" d="M52 71h1v1H52z"/><path fill="#d7b582" d="M53 71h1v1H53z"/><path fill="#edcc96" d="M54 71h2v1H54z"/><path fill="#d7b582" d="M56 71h5v1H56z"/><path fill="#293444" d="M61 71h1v1H61z"/><path fill="#80b4a0" d="M62 71h5v1H62z"/><path fill="#528e86" d="M67 71h7v1H67z"/><path fill="#293444" d="M74 71h1v1H74z"/><path fill="#293444" d="M20 72h1v1H20z"/><path fill="#e5e9df" d="M21 72h1v1H21z"/><path fill="#b4c4c5" d="M22 72h1v1H22z"/><path fill="#293444" d="M23 72h1v1H23z"/><path fill="#528e86" d="M24 72h1v1H24z"/><path fill="#293444" d="M25 72h1v1H25z"/><path fill="#528e86" d="M26 72h9v1H26z"/><path fill="#293444" d="M35 72h1v1H35z"/><path fill="#38666d" d="M36 72h8v1H36z"/><path fill="#293444" d="M44 72h1v1H44z"/><path fill="#38666d" d="M45 72h5v1H45z"/><path fill="#293444" d="M50 72h1v1H50z"/><path fill="#38666d" d="M51 72h2v1H51z"/><path fill="#293444" d="M53 72h1v1H53z"/><path fill="#edcc96" d="M54 72h2v1H54z"/><path fill="#d7b582" d="M56 72h5v1H56z"/><path fill="#293444" d="M61 72h1v1H61z"/><path fill="#38666d" d="M62 72h6v1H62z"/><path fill="#528e86" d="M68 72h6v1H68z"/><path fill="#293444" d="M74 72h1v1H74z"/><path fill="#293444" d="M20 73h1v1H20z"/><path fill="#e5e9df" d="M21 73h1v1H21z"/><path fill="#b4c4c5" d="M22 73h2v1H22z"/><path fill="#293444" d="M24 73h2v1H24z"/><path fill="#528e86" d="M26 73h9v1H26z"/><path fill="#293444" d="M35 73h1v1H35z"/><path fill="#80b4a0" d="M36 73h9v1H36z"/><path fill="#293444" d="M45 73h1v1H45z"/><path fill="#38666d" d="M46 73h2v1H46z"/><path fill="#80b4a0" d="M48 73h1v1H48z"/><path fill="#293444" d="M49 73h1v1H49z"/><path fill="#80b4a0" d="M50 73h3v1H50z"/><path fill="#293444" d="M53 73h1v1H53z"/><path fill="#edcc96" d="M54 73h2v1H54z"/><path fill="#d7b582" d="M56 73h5v1H56z"/><path fill="#293444" d="M61 73h1v1H61z"/><path fill="#80b4a0" d="M62 73h5v1H62z"/><path fill="#528e86" d="M67 73h6v1H67z"/><path fill="#293444" d="M73 73h1v1H73z"/><path fill="#293444" d="M20 74h1v1H20z"/><path fill="#e5e9df" d="M21 74h1v1H21z"/><path fill="#b4c4c5" d="M22 74h2v1H22z"/><path fill="#293444" d="M24 74h2v1H24z"/><path fill="#528e86" d="M26 74h10v1H26z"/><path fill="#293444" d="M36 74h1v1H36z"/><path fill="#80b4a0" d="M37 74h8v1H37z"/><path fill="#293444" d="M45 74h1v1H45z"/><path fill="#38666d" d="M46 74h2v1H46z"/><path fill="#80b4a0" d="M48 74h1v1H48z"/><path fill="#293444" d="M49 74h1v1H49z"/><path fill="#80b4a0" d="M50 74h3v1H50z"/><path fill="#293444" d="M53 74h1v1H53z"/><path fill="#edcc96" d="M54 74h2v1H54z"/><path fill="#293444" d="M56 74h6v1H56z"/><path fill="#80b4a0" d="M62 74h5v1H62z"/><path fill="#528e86" d="M67 74h6v1H67z"/><path fill="#293444" d="M73 74h1v1H73z"/><path fill="#293444" d="M20 75h1v1H20z"/><path fill="#e5e9df" d="M21 75h1v1H21z"/><path fill="#b4c4c5" d="M22 75h2v1H22z"/><path fill="#293444" d="M24 75h2v1H24z"/><path fill="#528e86" d="M26 75h11v1H26z"/><path fill="#293444" d="M37 75h1v1H37z"/><path fill="#80b4a0" d="M38 75h8v1H38z"/><path fill="#293444" d="M46 75h1v1H46z"/><path fill="#38666d" d="M47 75h1v1H47z"/><path fill="#293444" d="M48 75h1v1H48z"/><path fill="#80b4a0" d="M49 75h4v1H49z"/><path fill="#293444" d="M53 75h3v1H53z"/><path fill="#528e86" d="M56 75h5v1H56z"/><path fill="#293444" d="M61 75h5v1H61z"/><path fill="#80b4a0" d="M66 75h1v1H66z"/><path fill="#528e86" d="M67 75h6v1H67z"/><path fill="#293444" d="M73 75h1v1H73z"/><path fill="#e5e9df" d="M20 76h1v1H20z"/><path fill="#293444" d="M21 76h1v1H21z"/><path fill="#b4c4c5" d="M22 76h2v1H22z"/><path fill="#293444" d="M24 76h2v1H24z"/><path fill="#528e86" d="M26 76h12v1H26z"/><path fill="#293444" d="M38 76h1v1H38z"/><path fill="#80b4a0" d="M39 76h3v1H39z"/><path fill="#293444" d="M42 76h12v1H42z"/><path fill="#528e86" d="M54 76h11v1H54z"/><path fill="#293444" d="M65 76h1v1H65z"/><path fill="#80b4a0" d="M66 76h1v1H66z"/><path fill="#528e86" d="M67 76h6v1H67z"/><path fill="#293444" d="M73 76h1v1H73z"/><path fill="#293444" d="M21 77h1v1H21z"/><path fill="#b4c4c5" d="M22 77h2v1H22z"/><path fill="#293444" d="M24 77h2v1H24z"/><path fill="#528e86" d="M26 77h13v1H26z"/><path fill="#293444" d="M39 77h1v1H39z"/><path fill="#80b4a0" d="M40 77h2v1H40z"/><path fill="#293444" d="M42 77h1v1H42z"/><path fill="#fff9ed" d="M43 77h10v1H43z"/><path fill="#293444" d="M53 77h1v1H53z"/><path fill="#528e86" d="M54 77h11v1H54z"/><path fill="#293444" d="M65 77h1v1H65z"/><path fill="#80b4a0" d="M66 77h1v1H66z"/><path fill="#528e86" d="M67 77h6v1H67z"/><path fill="#293444" d="M73 77h1v1H73z"/><path fill="#293444" d="M21 78h1v1H21z"/><path fill="#b4c4c5" d="M22 78h2v1H22z"/><path fill="#293444" d="M24 78h1v1H24z"/><path fill="#528e86" d="M25 78h1v1H25z"/><path fill="#293444" d="M26 78h1v1H26z"/><path fill="#528e86" d="M27 78h13v1H27z"/><path fill="#293444" d="M40 78h1v1H40z"/><path fill="#80b4a0" d="M41 78h1v1H41z"/><path fill="#293444" d="M42 78h1v1H42z"/><path fill="#fff9ed" d="M43 78h10v1H43z"/><path fill="#293444" d="M53 78h1v1H53z"/><path fill="#528e86" d="M54 78h11v1H54z"/><path fill="#293444" d="M65 78h1v1H65z"/><path fill="#80b4a0" d="M66 78h1v1H66z"/><path fill="#528e86" d="M67 78h6v1H67z"/><path fill="#293444" d="M73 78h1v1H73z"/><path fill="#293444" d="M21 79h1v1H21z"/><path fill="#b4c4c5" d="M22 79h3v1H22z"/><path fill="#293444" d="M25 79h2v1H25z"/><path fill="#528e86" d="M27 79h13v1H27z"/><path fill="#293444" d="M40 79h1v1H40z"/><path fill="#80b4a0" d="M41 79h1v1H41z"/><path fill="#293444" d="M42 79h1v1H42z"/><path fill="#fff9ed" d="M43 79h1v1H43z"/><path fill="#528e86" d="M44 79h3v1H44z"/><path fill="#fff9ed" d="M47 79h2v1H47z"/><path fill="#b4c4c5" d="M49 79h3v1H49z"/><path fill="#fff9ed" d="M52 79h1v1H52z"/><path fill="#293444" d="M53 79h1v1H53z"/><path fill="#528e86" d="M54 79h10v1H54z"/><path fill="#293444" d="M64 79h1v1H64z"/><path fill="#80b4a0" d="M65 79h2v1H65z"/><path fill="#528e86" d="M67 79h5v1H67z"/><path fill="#293444" d="M72 79h1v1H72z"/><path fill="#293444" d="M21 80h1v1H21z"/><path fill="#b4c4c5" d="M22 80h3v1H22z"/><path fill="#293444" d="M25 80h2v1H25z"/><path fill="#528e86" d="M27 80h14v1H27z"/><path fill="#293444" d="M41 80h2v1H41z"/><path fill="#fff9ed" d="M43 80h1v1H43z"/><path fill="#528e86" d="M44 80h3v1H44z"/><path fill="#fff9ed" d="M47 80h6v1H47z"/><path fill="#293444" d="M53 80h1v1H53z"/><path fill="#528e86" d="M54 80h10v1H54z"/><path fill="#293444" d="M64 80h1v1H64z"/><path fill="#80b4a0" d="M65 80h2v1H65z"/><path fill="#528e86" d="M67 80h5v1H67z"/><path fill="#293444" d="M72 80h1v1H72z"/><path fill="#293444" d="M21 81h1v1H21z"/><path fill="#b4c4c5" d="M22 81h3v1H22z"/><path fill="#293444" d="M25 81h1v1H25z"/><path fill="#528e86" d="M26 81h1v1H26z"/><path fill="#293444" d="M27 81h2v1H27z"/><path fill="#528e86" d="M29 81h13v1H29z"/><path fill="#293444" d="M42 81h1v1H42z"/><path fill="#fff9ed" d="M43 81h1v1H43z"/><path fill="#528e86" d="M44 81h3v1H44z"/><path fill="#fff9ed" d="M47 81h2v1H47z"/><path fill="#b4c4c5" d="M49 81h2v1H49z"/><path fill="#fff9ed" d="M51 81h2v1H51z"/><path fill="#293444" d="M53 81h1v1H53z"/><path fill="#528e86" d="M54 81h10v1H54z"/><path fill="#293444" d="M64 81h1v1H64z"/><path fill="#80b4a0" d="M65 81h2v1H65z"/><path fill="#528e86" d="M67 81h5v1H67z"/><path fill="#293444" d="M72 81h1v1H72z"/><path fill="#293444" d="M21 82h1v1H21z"/><path fill="#b4c4c5" d="M22 82h3v1H22z"/><path fill="#293444" d="M25 82h1v1H25z"/><path fill="#528e86" d="M26 82h3v1H26z"/><path fill="#293444" d="M29 82h2v1H29z"/><path fill="#528e86" d="M31 82h11v1H31z"/><path fill="#293444" d="M42 82h1v1H42z"/><path fill="#fff9ed" d="M43 82h1v1H43z"/><path fill="#528e86" d="M44 82h3v1H44z"/><path fill="#fff9ed" d="M47 82h6v1H47z"/><path fill="#293444" d="M53 82h1v1H53z"/><path fill="#528e86" d="M54 82h10v1H54z"/><path fill="#293444" d="M64 82h1v1H64z"/><path fill="#38666d" d="M65 82h3v1H65z"/><path fill="#528e86" d="M68 82h4v1H68z"/><path fill="#293444" d="M72 82h1v1H72z"/><path fill="#293444" d="M21 83h1v1H21z"/><path fill="#b4c4c5" d="M22 83h3v1H22z"/><path fill="#293444" d="M25 83h1v1H25z"/><path fill="#528e86" d="M26 83h5v1H26z"/><path fill="#293444" d="M31 83h2v1H31z"/><path fill="#528e86" d="M33 83h9v1H33z"/><path fill="#293444" d="M42 83h1v1H42z"/><path fill="#fff9ed" d="M43 83h10v1H43z"/><path fill="#293444" d="M53 83h1v1H53z"/><path fill="#528e86" d="M54 83h9v1H54z"/><path fill="#293444" d="M63 83h2v1H63z"/><path fill="#80b4a0" d="M65 83h1v1H65z"/><path fill="#528e86" d="M66 83h6v1H66z"/><path fill="#293444" d="M72 83h1v1H72z"/><path fill="#293444" d="M21 84h1v1H21z"/><path fill="#b4c4c5" d="M22 84h3v1H22z"/><path fill="#293444" d="M25 84h1v1H25z"/><path fill="#528e86" d="M26 84h5v1H26z"/><path fill="#80b4a0" d="M31 84h2v1H31z"/><path fill="#293444" d="M33 84h2v1H33z"/><path fill="#528e86" d="M35 84h7v1H35z"/><path fill="#293444" d="M42 84h1v1H42z"/><path fill="#fff9ed" d="M43 84h10v1H43z"/><path fill="#293444" d="M53 84h1v1H53z"/><path fill="#528e86" d="M54 84h5v1H54z"/><path fill="#293444" d="M59 84h4v1H59z"/><path fill="#80b4a0" d="M63 84h3v1H63z"/><path fill="#528e86" d="M66 84h6v1H66z"/><path fill="#293444" d="M72 84h1v1H72z"/><path fill="#293444" d="M21 85h1v1H21z"/><path fill="#e5e9df" d="M22 85h4v1H22z"/><path fill="#293444" d="M26 85h1v1H26z"/><path fill="#528e86" d="M27 85h4v1H27z"/><path fill="#80b4a0" d="M31 85h4v1H31z"/><path fill="#293444" d="M35 85h2v1H35z"/><path fill="#528e86" d="M37 85h5v1H37z"/><path fill="#293444" d="M42 85h12v1H42z"/><path fill="#528e86" d="M54 85h2v1H54z"/><path fill="#293444" d="M56 85h3v1H56z"/><path fill="#80b4a0" d="M59 85h7v1H59z"/><path fill="#528e86" d="M66 85h5v1H66z"/><path fill="#293444" d="M71 85h2v1H71z"/><path fill="#293444" d="M21 86h1v1H21z"/><path fill="#e5e9df" d="M22 86h4v1H22z"/><path fill="#293444" d="M26 86h1v1H26z"/><path fill="#528e86" d="M27 86h4v1H27z"/><path fill="#80b4a0" d="M31 86h6v1H31z"/><path fill="#293444" d="M37 86h2v1H37z"/><path fill="#528e86" d="M39 86h13v1H39z"/><path fill="#293444" d="M52 86h4v1H52z"/><path fill="#80b4a0" d="M56 86h10v1H56z"/><path fill="#528e86" d="M66 86h5v1H66z"/><path fill="#293444" d="M71 86h2v1H71z"/><path fill="#293444" d="M22 87h1v1H22z"/><path fill="#fff9ed" d="M23 87h3v1H23z"/><path fill="#293444" d="M26 87h1v1H26z"/><path fill="#528e86" d="M27 87h4v1H27z"/><path fill="#80b4a0" d="M31 87h8v1H31z"/><path fill="#293444" d="M39 87h2v1H39z"/><path fill="#528e86" d="M41 87h8v1H41z"/><path fill="#293444" d="M49 87h3v1H49z"/><path fill="#80b4a0" d="M52 87h14v1H52z"/><path fill="#528e86" d="M66 87h5v1H66z"/><path fill="#293444" d="M71 87h1v1H71z"/><path fill="#293444" d="M22 88h1v1H22z"/><path fill="#fff9ed" d="M23 88h3v1H23z"/><path fill="#293444" d="M26 88h1v1H26z"/><path fill="#528e86" d="M27 88h14v1H27z"/><path fill="#293444" d="M41 88h2v1H41z"/><path fill="#528e86" d="M43 88h2v1H43z"/><path fill="#293444" d="M45 88h4v1H45z"/><path fill="#528e86" d="M49 88h22v1H49z"/><path fill="#293444" d="M71 88h1v1H71z"/><path fill="#e5e9df" d="M22 89h1v1H22z"/><path fill="#fff9ed" d="M23 89h3v1H23z"/><path fill="#293444" d="M26 89h1v1H26z"/><path fill="#528e86" d="M27 89h16v1H27z"/><path fill="#293444" d="M43 89h2v1H43z"/><path fill="#528e86" d="M45 89h1v1H45z"/><path fill="#38666d" d="M46 89h2v1H46z"/><path fill="#528e86" d="M48 89h23v1H48z"/><path fill="#293444" d="M71 89h1v1H71z"/><path fill="#fff9ed" d="M23 90h3v1H23z"/><path fill="#293444" d="M26 90h1v1H26z"/><path fill="#528e86" d="M27 90h2v1H27z"/><path fill="#38666d" d="M29 90h39v1H29z"/><path fill="#528e86" d="M68 90h3v1H68z"/><path fill="#293444" d="M71 90h1v1H71z"/><path fill="#293444" d="M24 91h4v1H24z"/><path fill="#528e86" d="M28 91h42v1H28z"/><path fill="#293444" d="M70 91h1v1H70z"/><path fill="#f2c397" d="M24 92h1v1H24z"/><path fill="#293444" d="M25 92h1v1H25z"/><path fill="#f2c397" d="M26 92h1v1H26z"/><path fill="#293444" d="M27 92h1v1H27z"/><path fill="#528e86" d="M28 92h42v1H28z"/><path fill="#293444" d="M70 92h1v1H70z"/><path fill="#293444" d="M24 93h1v1H24z"/><path fill="#ffe0b0" d="M25 93h2v1H25z"/><path fill="#293444" d="M27 93h1v1H27z"/><path fill="#528e86" d="M28 93h42v1H28z"/><path fill="#293444" d="M70 93h2v1H70z"/><path fill="#293444" d="M24 94h1v1H24z"/><path fill="#ffe0b0" d="M25 94h2v1H25z"/><path fill="#293444" d="M27 94h45v1H27z"/><path fill="#293444" d="M23 95h1v1H23z"/><path fill="#f2c397" d="M24 95h1v1H24z"/><path fill="#ffe0b0" d="M25 95h4v1H25z"/><path fill="#f2c397" d="M29 95h3v1H29z"/><path fill="#293444" d="M32 95h1v1H32z"/><path fill="#414d65" d="M33 95h2v1H33z"/><path fill="#596880" d="M35 95h6v1H35z"/><path fill="#414d65" d="M41 95h8v1H41z"/><path fill="#293444" d="M49 95h1v1H49z"/><path fill="#414d65" d="M50 95h5v1H50z"/><path fill="#596880" d="M55 95h5v1H55z"/><path fill="#414d65" d="M60 95h2v1H60z"/><path fill="#293444" d="M62 95h1v1H62z"/><path fill="#f2c397" d="M63 95h8v1H63z"/><path fill="#293444" d="M71 95h1v1H71z"/><path fill="#293444" d="M23 96h1v1H23z"/><path fill="#f2c397" d="M24 96h8v1H24z"/><path fill="#293444" d="M32 96h1v1H32z"/><path fill="#414d65" d="M33 96h2v1H33z"/><path fill="#596880" d="M35 96h6v1H35z"/><path fill="#414d65" d="M41 96h8v1H41z"/><path fill="#293444" d="M49 96h1v1H49z"/><path fill="#414d65" d="M50 96h5v1H50z"/><path fill="#596880" d="M55 96h5v1H55z"/><path fill="#414d65" d="M60 96h2v1H60z"/><path fill="#293444" d="M62 96h1v1H62z"/><path fill="#f2c397" d="M63 96h8v1H63z"/><path fill="#293444" d="M71 96h1v1H71z"/><path fill="#293444" d="M23 97h1v1H23z"/><path fill="#f2c397" d="M24 97h8v1H24z"/><path fill="#293444" d="M32 97h1v1H32z"/><path fill="#414d65" d="M33 97h2v1H33z"/><path fill="#596880" d="M35 97h6v1H35z"/><path fill="#414d65" d="M41 97h8v1H41z"/><path fill="#293444" d="M49 97h1v1H49z"/><path fill="#414d65" d="M50 97h5v1H50z"/><path fill="#596880" d="M55 97h5v1H55z"/><path fill="#414d65" d="M60 97h3v1H60z"/><path fill="#293444" d="M63 97h1v1H63z"/><path fill="#f2c397" d="M64 97h1v1H64z"/><path fill="#d89778" d="M65 97h5v1H65z"/><path fill="#f2c397" d="M70 97h1v1H70z"/><path fill="#293444" d="M71 97h1v1H71z"/><path fill="#293444" d="M24 98h1v1H24z"/><path fill="#f2c397" d="M25 98h1v1H25z"/><path fill="#d89778" d="M26 98h5v1H26z"/><path fill="#f2c397" d="M31 98h1v1H31z"/><path fill="#293444" d="M32 98h1v1H32z"/><path fill="#414d65" d="M33 98h2v1H33z"/><path fill="#596880" d="M35 98h6v1H35z"/><path fill="#414d65" d="M41 98h8v1H41z"/><path fill="#293444" d="M49 98h1v1H49z"/><path fill="#414d65" d="M50 98h5v1H50z"/><path fill="#596880" d="M55 98h5v1H55z"/><path fill="#414d65" d="M60 98h3v1H60z"/><path fill="#293444" d="M63 98h1v1H63z"/><path fill="#f2c397" d="M64 98h6v1H64z"/><path fill="#293444" d="M70 98h1v1H70z"/><path fill="#293444" d="M24 99h1v1H24z"/><path fill="#f2c397" d="M25 99h6v1H25z"/><path fill="#293444" d="M31 99h1v1H31z"/><path fill="#414d65" d="M32 99h3v1H32z"/><path fill="#596880" d="M35 99h6v1H35z"/><path fill="#414d65" d="M41 99h8v1H41z"/><path fill="#293444" d="M49 99h1v1H49z"/><path fill="#414d65" d="M50 99h5v1H50z"/><path fill="#596880" d="M55 99h5v1H55z"/><path fill="#414d65" d="M60 99h3v1H60z"/><path fill="#293444" d="M63 99h3v1H63z"/><path fill="#f2c397" d="M66 99h3v1H66z"/><path fill="#293444" d="M69 99h1v1H69z"/><path fill="#293444" d="M24 100h3v1H24z"/><path fill="#f2c397" d="M27 100h3v1H27z"/><path fill="#293444" d="M30 100h2v1H30z"/><path fill="#414d65" d="M32 100h3v1H32z"/><path fill="#596880" d="M35 100h6v1H35z"/><path fill="#414d65" d="M41 100h7v1H41z"/><path fill="#293444" d="M48 100h1v1H48z"/><path fill="#293444" d="M50 100h1v1H50z"/><path fill="#414d65" d="M51 100h4v1H51z"/><path fill="#596880" d="M55 100h5v1H55z"/><path fill="#414d65" d="M60 100h5v1H60z"/><path fill="#293444" d="M65 100h4v1H65z"/><path fill="#293444" d="M27 101h3v1H27z"/><path fill="#293444" d="M31 101h1v1H31z"/><path fill="#414d65" d="M32 101h3v1H32z"/><path fill="#596880" d="M35 101h6v1H35z"/><path fill="#414d65" d="M41 101h7v1H41z"/><path fill="#293444" d="M48 101h1v1H48z"/><path fill="#293444" d="M50 101h1v1H50z"/><path fill="#414d65" d="M51 101h4v1H51z"/><path fill="#596880" d="M55 101h5v1H55z"/><path fill="#414d65" d="M60 101h5v1H60z"/><path fill="#293444" d="M65 101h1v1H65z"/><path fill="#293444" d="M31 102h1v1H31z"/><path fill="#414d65" d="M32 102h3v1H32z"/><path fill="#596880" d="M35 102h6v1H35z"/><path fill="#414d65" d="M41 102h7v1H41z"/><path fill="#293444" d="M48 102h1v1H48z"/><path fill="#293444" d="M50 102h1v1H50z"/><path fill="#414d65" d="M51 102h4v1H51z"/><path fill="#596880" d="M55 102h5v1H55z"/><path fill="#414d65" d="M60 102h5v1H60z"/><path fill="#293444" d="M65 102h1v1H65z"/><path fill="#293444" d="M31 103h1v1H31z"/><path fill="#414d65" d="M32 103h3v1H32z"/><path fill="#596880" d="M35 103h6v1H35z"/><path fill="#414d65" d="M41 103h7v1H41z"/><path fill="#293444" d="M48 103h1v1H48z"/><path fill="#293444" d="M50 103h1v1H50z"/><path fill="#414d65" d="M51 103h4v1H51z"/><path fill="#596880" d="M55 103h5v1H55z"/><path fill="#414d65" d="M60 103h5v1H60z"/><path fill="#293444" d="M65 103h1v1H65z"/><path fill="#293444" d="M31 104h1v1H31z"/><path fill="#414d65" d="M32 104h3v1H32z"/><path fill="#596880" d="M35 104h6v1H35z"/><path fill="#414d65" d="M41 104h7v1H41z"/><path fill="#293444" d="M48 104h1v1H48z"/><path fill="#293444" d="M50 104h1v1H50z"/><path fill="#414d65" d="M51 104h4v1H51z"/><path fill="#596880" d="M55 104h5v1H55z"/><path fill="#414d65" d="M60 104h5v1H60z"/><path fill="#293444" d="M65 104h1v1H65z"/><path fill="#293444" d="M31 105h1v1H31z"/><path fill="#414d65" d="M32 105h3v1H32z"/><path fill="#596880" d="M35 105h6v1H35z"/><path fill="#414d65" d="M41 105h7v1H41z"/><path fill="#293444" d="M48 105h1v1H48z"/><path fill="#293444" d="M50 105h1v1H50z"/><path fill="#414d65" d="M51 105h4v1H51z"/><path fill="#596880" d="M55 105h5v1H55z"/><path fill="#414d65" d="M60 105h5v1H60z"/><path fill="#293444" d="M65 105h1v1H65z"/><path fill="#293444" d="M31 106h1v1H31z"/><path fill="#414d65" d="M32 106h3v1H32z"/><path fill="#596880" d="M35 106h6v1H35z"/><path fill="#414d65" d="M41 106h7v1H41z"/><path fill="#293444" d="M48 106h1v1H48z"/><path fill="#293444" d="M50 106h1v1H50z"/><path fill="#414d65" d="M51 106h4v1H51z"/><path fill="#596880" d="M55 106h5v1H55z"/><path fill="#414d65" d="M60 106h5v1H60z"/><path fill="#293444" d="M65 106h1v1H65z"/><path fill="#293444" d="M31 107h1v1H31z"/><path fill="#414d65" d="M32 107h3v1H32z"/><path fill="#596880" d="M35 107h6v1H35z"/><path fill="#414d65" d="M41 107h6v1H41z"/><path fill="#293444" d="M47 107h1v1H47z"/><path fill="#293444" d="M51 107h1v1H51z"/><path fill="#414d65" d="M52 107h3v1H52z"/><path fill="#596880" d="M55 107h5v1H55z"/><path fill="#414d65" d="M60 107h5v1H60z"/><path fill="#293444" d="M65 107h1v1H65z"/><path fill="#293444" d="M31 108h1v1H31z"/><path fill="#414d65" d="M32 108h3v1H32z"/><path fill="#596880" d="M35 108h6v1H35z"/><path fill="#414d65" d="M41 108h6v1H41z"/><path fill="#293444" d="M47 108h1v1H47z"/><path fill="#293444" d="M51 108h1v1H51z"/><path fill="#414d65" d="M52 108h3v1H52z"/><path fill="#596880" d="M55 108h5v1H55z"/><path fill="#414d65" d="M60 108h5v1H60z"/><path fill="#293444" d="M65 108h1v1H65z"/><path fill="#293444" d="M31 109h1v1H31z"/><path fill="#414d65" d="M32 109h3v1H32z"/><path fill="#596880" d="M35 109h6v1H35z"/><path fill="#414d65" d="M41 109h6v1H41z"/><path fill="#293444" d="M47 109h1v1H47z"/><path fill="#293444" d="M51 109h1v1H51z"/><path fill="#414d65" d="M52 109h3v1H52z"/><path fill="#596880" d="M55 109h5v1H55z"/><path fill="#414d65" d="M60 109h5v1H60z"/><path fill="#293444" d="M65 109h1v1H65z"/><path fill="#293444" d="M31 110h1v1H31z"/><path fill="#414d65" d="M32 110h3v1H32z"/><path fill="#596880" d="M35 110h6v1H35z"/><path fill="#414d65" d="M41 110h6v1H41z"/><path fill="#293444" d="M47 110h1v1H47z"/><path fill="#293444" d="M51 110h1v1H51z"/><path fill="#414d65" d="M52 110h3v1H52z"/><path fill="#596880" d="M55 110h5v1H55z"/><path fill="#414d65" d="M60 110h5v1H60z"/><path fill="#293444" d="M65 110h1v1H65z"/><path fill="#293444" d="M31 111h1v1H31z"/><path fill="#414d65" d="M32 111h3v1H32z"/><path fill="#596880" d="M35 111h6v1H35z"/><path fill="#414d65" d="M41 111h6v1H41z"/><path fill="#293444" d="M47 111h1v1H47z"/><path fill="#293444" d="M51 111h1v1H51z"/><path fill="#414d65" d="M52 111h3v1H52z"/><path fill="#596880" d="M55 111h5v1H55z"/><path fill="#414d65" d="M60 111h4v1H60z"/><path fill="#293444" d="M64 111h1v1H64z"/><path fill="#293444" d="M31 112h1v1H31z"/><path fill="#414d65" d="M32 112h3v1H32z"/><path fill="#596880" d="M35 112h6v1H35z"/><path fill="#414d65" d="M41 112h6v1H41z"/><path fill="#293444" d="M47 112h1v1H47z"/><path fill="#293444" d="M51 112h1v1H51z"/><path fill="#414d65" d="M52 112h3v1H52z"/><path fill="#596880" d="M55 112h5v1H55z"/><path fill="#414d65" d="M60 112h4v1H60z"/><path fill="#293444" d="M64 112h1v1H64z"/><path fill="#293444" d="M32 113h1v1H32z"/><path fill="#414d65" d="M33 113h14v1H33z"/><path fill="#293444" d="M47 113h1v1H47z"/><path fill="#293444" d="M51 113h1v1H51z"/><path fill="#414d65" d="M52 113h11v1H52z"/><path fill="#293444" d="M63 113h1v1H63z"/><path fill="#293444" d="M32 114h15v1H32z"/><path fill="#293444" d="M52 114h12v1H52z"/><path fill="#293444" d="M31 115h16v1H31z"/><path fill="#293444" d="M52 115h14v1H52z"/><path fill="#293444" d="M29 116h2v1H29z"/><path fill="#6e6b70" d="M31 116h10v1H31z"/><path fill="#293444" d="M41 116h6v1H41z"/><path fill="#293444" d="M52 116h4v1H52z"/><path fill="#6e6b70" d="M56 116h7v1H56z"/><path fill="#293444" d="M63 116h5v1H63z"/><path fill="#293444" d="M28 117h3v1H28z"/><path fill="#6e6b70" d="M31 117h10v1H31z"/><path fill="#293444" d="M41 117h6v1H41z"/><path fill="#293444" d="M52 117h4v1H52z"/><path fill="#6e6b70" d="M56 117h7v1H56z"/><path fill="#293444" d="M63 117h7v1H63z"/><path fill="#293444" d="M27 118h19v1H27z"/><path fill="#293444" d="M53 118h18v1H53z"/><path fill="#293444" d="M27 119h19v1H27z"/><path fill="#293444" d="M53 119h18v1H53z"/><path fill="#293444" d="M27 120h19v1H27z"/><path fill="#293444" d="M53 120h18v1H53z"/><path fill="#293444" d="M27 121h19v1H27z"/><path fill="#293444" d="M53 121h18v1H53z"/><path fill="#b4b8ac" d="M27 122h19v1H27z"/><path fill="#b4b8ac" d="M53 122h18v1H53z"/></svg>